<svg version="1.2" xmlns="http://www.w3.org/2000/svg" viewBox="0 0 1080 1080" width="1080" height="1080">
	<style>
		.s0 { fill: #f37c54;stroke: #ffffff;stroke-miterlimit:10;stroke-width: 6 } 
		.s1 { fill: #eecaad } 
		.s2 { fill: #f3a760 } 
		.s3 { fill: #c4a2e6 } 
		.s4 { fill: #ddb5a3 } 
		.s5 { fill: none;stroke: #000000;stroke-linecap: round;stroke-linejoin: round;stroke-width: .5 } 
		.s6 { fill: #402f29 } 
		.s7 { fill: #8f5138 } 
		.s8 { fill: #bf8962 } 
		.s9 { fill: #ffffff } 
	</style>
	<g id="Layer 1">
		<path id="&lt;Path&gt;" class="s0" d="m107 1080v-646.92c0-239.18 193.9-433.08 433.08-433.08 239.18 0 433.08 193.9 433.08 433.08v646.92z"/>
		<path id="&lt;Path&gt;" class="s1" d="m842.38 497c0 0 23.56-66.44 35.79-65.36 12.23 1.09-35.79 65.36-35.79 65.36z"/>
		<path id="&lt;Path&gt;" class="s1" d="m767.58 609.78c0 0-41.59-95.8-28.64-99.62 12.95-3.83 28.64 99.62 28.64 99.62z"/>
		<path id="&lt;Path&gt;" class="s2" d="m775.49 515.43c0 0-11.5-54.43-0.52-57.45 10.98-3.03 0.52 57.45 0.52 57.45z"/>
		<path id="&lt;Path&gt;" class="s2" d="m775.66 602.59c0 0 31.08-162.26 44.24-164 38.04-5.04-44.24 164-44.24 164z"/>
		<path id="&lt;Path&gt;" class="s2" d="m793.94 593.35c0 0 72.04-113.02 94.34-82.19 8.28 11.44-94.34 82.19-94.34 82.19z"/>
		<path id="&lt;Path&gt;" class="s1" d="m797.55 610.18c0 0 48.6-20.99 55.6-10.85 7 10.13-55.6 10.85-55.6 10.85z"/>
		<path id="&lt;Path&gt;" class="s1" d="m906.52 506.07l-3.62-7.69-8.39-1.38 6.19-5.82-1.28-8.4 7.45 4.09 7.59-3.82-1.59 8.35 5.98 6.05-8.43 1.06z"/>
		<path id="&lt;Path&gt;" class="s2" d="m768.06 445.19l-3.62-7.68-8.39-1.38 6.2-5.82-1.29-8.4 7.45 4.09 7.6-3.82-1.59 8.35 5.97 6.04-8.43 1.07z"/>
		<path id="&lt;Path&gt;" class="s2" d="m870.86 595.45l-3.62-7.69-8.39-1.37 6.19-5.82-1.28-8.4 7.45 4.09 7.59-3.82-1.59 8.35 5.98 6.04-8.43 1.07z"/>
		<path id="&lt;Path&gt;" class="s1" d="m237.79 573.05c0 0-48.67-50.99-42.19-61.41 6.49-10.43 42.19 61.41 42.19 61.41z"/>
		<path id="&lt;Path&gt;" class="s1" d="m304.71 690.68c0 0-104.26-6.08-101.83-19.37 2.43-13.28 101.83 19.37 101.83 19.37z"/>
		<path id="&lt;Path&gt;" class="s2" d="m224.07 641.07c0 0-53.76-14.29-51.51-25.45 2.25-11.16 51.51 25.45 51.51 25.45z"/>
		<path id="&lt;Path&gt;" class="s2" d="m301.94 680.23c0 0-130.8-100.92-126.42-113.45 12.66-36.23 126.42 113.45 126.42 113.45z"/>
		<path id="&lt;Path&gt;" class="s2" d="m301.94 659.75c0 0-68.38-115.27-30.81-121.27 13.95-2.22 30.81 121.27 30.81 121.27z"/>
		<path id="&lt;Path&gt;" class="s1" d="m318.58 664.12c0 0 3.2-52.85 15.4-54.52 12.19-1.68-15.4 54.52-15.4 54.52z"/>
		<path id="&lt;Path&gt;" class="s1" d="m274.81 519.91l-8.49-0.24-5.01 6.87-2.41-8.16-8.07-2.64 7.01-4.8 0.02-8.5 6.73 5.18 8.09-2.61-2.85 8.01z"/>
		<path id="&lt;Path&gt;" class="s2" d="m158.04 616.02l-8.5-0.23-5.01 6.86-2.4-8.15-8.08-2.64 7.01-4.81 0.02-8.5 6.74 5.19 8.08-2.61-2.84 8.01z"/>
		<path id="&lt;Path&gt;" class="s2" d="m338.51 592.05l-8.5-0.24-5.01 6.87-2.4-8.15-8.08-2.65 7.01-4.8 0.02-8.5 6.73 5.18 8.09-2.6-2.85 8z"/>
		<path id="&lt;Path&gt;" class="s3" d="m559.59 164.44l3.71 148.51h21.32v-148.51z"/>
		<path id="&lt;Path&gt;" class="s2" d="m573.61 105.1c0 0-25.75 21.19-20.85 36.61 2.78 8.76 6.95 14.7 20.85 14.08 13.9-0.63 17.38-9.7 15.3-18.15-1.21-4.89-5.91-8.45-9.39-16.89-3.47-8.45-5.91-15.65-5.91-15.65z"/>
		<path id="&lt;Path&gt;" class="s4" d="m389.02 481.84l56.2 216.01h172.11l35.12-216.01z"/>
		<path id="&lt;Path&gt;" class="s5" d="m431.17 503.35l37.46 174.9 31.62 1.79 15.22-173.68 33.95-3.01 24.59 166h21.07l30.44-162.99"/>
		<path id="&lt;Path&gt;" class="s6" d="m413.38 524.16c-11.59 6.77-49.17 14.71-63.22-33.11-14.05-47.82 21.07-96.87 63.22-90.73 42.15 6.13 77.27 26.09 77.27 26.09 0 0 36.3-60.43 96.01-51.84 59.71 8.58 57.37 69.89 57.37 69.89 0 0 38.63-34.33 64.39 0 25.76 34.33-1.12 99.14-34.59 105.45-33.48 6.31-84.83-34.33-84.83-34.33 0 0-22.96 33.21-60.66 35-37.69 1.78-62.27-47.23-62.27-47.23 0 0 0 43.08-16.39 47.27-16.39 4.2-36.3-26.46-36.3-26.46z"/>
		<path id="&lt;Path&gt;" class="s7" d="m413.38 334.1c0 0 12.88-69.89 73.76-63.76 60.88 6.13 63.22 54.77 63.22 54.77 0 0 37.47-42.24 66.74-26.43 29.27 15.8 21.07 50.14 21.07 50.14 0 0 64.4-30.66 72.59 9.81 8.2 40.46-25.75 53.4-25.75 53.4 0 0 29.27 26.3 10.53 44.69-18.73 18.39-67.9 26.98-87.81-4.9-19.9-31.89-19.9-31.89-19.9-31.89 0 0-11.61 49.8-58.44 47.83-46.84-1.98-69.18-36.75-69.18-36.75 0 0-4.68 24.48-37.46 37.97-31.61 13.01-80.05-5.97-75.74-56.24 4.32-50.28 42.01-46.76 42.01-46.76 0 0-35.35-19.97-13.1-44 22.24-24.04 37.46 12.12 37.46 12.12z"/>
		<path id="&lt;Path&gt;" class="s8" d="m528.85 220.53c0 0-1.67 23.63 22.62 36.26 24.29 12.63 52.7 20.04 52.78 57.44 0.04 21.36-25.97 33.09-89.64 28.06-63.66-5.02-57.53-41.04-45.23-55.42 10.15-11.86 23.45-16.72 36.02-31.33 12.56-14.61 23.45-35.01 23.45-35.01z"/>
		<path id="&lt;Path&gt;" class="s8" d="m602.97 299.31c-5.77 4.01-2.79-2.02-7.76-8.3-3.05-3.86-6.5-1.84-9.37 0.66-1.8 1.58-3.38 3.34-4.52 3.97-2.98 1.65-7.94 6.61-12.9 3.64-4.96-2.98-6.95-9.27-13.57-8.27-2.75 0.4-4.88 2.05-6.94 3.75-0.66 0.47-1.29 0.99-1.91 1.47-2.36 1.72-4.86 2.97-8.35 2.05-7.61-1.98-3.64-5.95-12.16-8.78-7.83-2.57-5.81 6.95-11.03 11.1-0.48 0.37-0.99 0.7-1.62 0.99-3.75 1.73-6.62-1.06-9.7-4.45-2.91-3.12-5.96-6.76-10.15-7.64-5.62-1.21-8.27 1.06-11.1 1.58q0.01 0-0.04 0c-1.47 0.22-3.01-0.04-5.07-1.58-3.2-2.39-3.05-6.76-0.66-10.77 8.05-6.95 17.28-12.02 26.32-21.39q1.53-1.65 3.12-3.46c6.36-7.39 12.28-16.25 16.58-23.23 3.05-5.96 5.99-10.44 6.73-11.51 0.07-0.18 0.14-0.25 0.14-0.25 0 0-1.65 23.63 22.65 36.24 21.1 10.99 45.28 18.01 51.31 44.18z"/>
		<path id="&lt;Path&gt;" class="s5" d="m526.27 231.79c0 0-8.08 23.49 14.54 36.48 22.62 12.98 46.89 17.1 49.84 35.18 4.66 28.56-29.84 34.58-29.84 34.58"/>
		<path id="&lt;Path&gt;" class="s5" d="m527.11 225.83c0 0-16.04 20.66-12.27 35.74 3.77 15.08 29.76 24.05 31.83 41.04 3.29 26.95-22.71 36.17-39.42 35.37"/>
		<path id="&lt;Path&gt;" class="s5" d="m502.25 258.99c0 0-8.93 14.15 0 36.5 10.04 25.15-26.87 31.2-35.39 21.65"/>
		<path id="&lt;Path&gt;" class="s8" d="m451.34 327.87c0 2.55-2.06 4.61-4.61 4.61-2.55 0-4.61-2.06-4.61-4.61 0-2.55 2.06-4.61 4.61-4.61 2.55 0 4.61 2.06 4.61 4.61z"/>
		<path id="&lt;Path&gt;" class="s8" d="m457.57 381.81c0 1.72-1.4 3.11-3.12 3.11-1.72 0-3.11-1.39-3.11-3.11 0-1.72 1.39-3.11 3.11-3.11 1.72 0 3.12 1.39 3.12 3.11z"/>
		<path id="&lt;Path&gt;" class="s8" d="m503.45 368.68c0 1.58-1.29 2.87-2.87 2.87-1.59 0-2.88-1.29-2.88-2.87 0-1.59 1.29-2.88 2.88-2.88 1.58 0 2.87 1.29 2.87 2.88z"/>
		<path id="&lt;Path&gt;" class="s8" d="m523.53 389.11c0-0.77-0.63-1.39-1.4-1.39-0.77 0-1.4 0.62-1.4 1.39 0 0.77 0.63 1.4 1.4 1.4 0.77 0 1.4-0.63 1.4-1.4z"/>
		<path id="&lt;Path&gt;" class="s8" d="m575.03 358.94c0 2.25-1.82 4.07-4.06 4.07-2.25 0-4.06-1.82-4.06-4.07 0-2.24 1.81-4.06 4.06-4.06 2.24 0 4.06 1.82 4.06 4.06z"/>
		<path id="&lt;Path&gt;" class="s8" d="m621.75 364.4c0 0.77-0.63 1.4-1.4 1.4-0.77 0-1.4-0.63-1.4-1.4 0-0.77 0.63-1.39 1.4-1.39 0.77 0 1.4 0.62 1.4 1.39z"/>
		<path id="&lt;Path&gt;" class="s8" d="m625.52 391c0 1.04-0.84 1.89-1.89 1.89-1.04 0-1.88-0.85-1.88-1.89 0-1.04 0.84-1.89 1.88-1.89 1.05 0 1.89 0.85 1.89 1.89z"/>
		<path id="&lt;Path&gt;" class="s8" d="m680.27 371.98c0 1.83-1.49 3.31-3.31 3.31-1.83 0-3.31-1.48-3.31-3.31 0-1.82 1.48-3.3 3.31-3.3 1.82 0 3.31 1.48 3.31 3.3z"/>
		<path id="&lt;Path&gt;" class="s8" d="m625.52 335.76c0 1.82-1.47 3.29-3.28 3.29-1.82 0-3.29-1.47-3.29-3.29 0-1.81 1.47-3.28 3.29-3.28 1.81 0 3.28 1.47 3.28 3.28z"/>
		<path id="&lt;Path&gt;" class="s8" d="m494.57 348.7c0 1.95-1.58 3.53-3.53 3.53-1.95 0-3.53-1.58-3.53-3.53 0-1.95 1.58-3.53 3.53-3.53 1.95 0 3.53 1.58 3.53 3.53z"/>
		<path id="&lt;Path&gt;" class="s8" d="m416.93 378.56c0 1.81 0 3.27 0 3.27 0 0 0-1.46 0-3.27 0-1.8 0-3.27 0-3.27 0 0 0 1.47 0 3.27z"/>
		<path id="&lt;Path&gt;" class="s8" d="m389.02 395.73c0 1.58 0 2.85 0 2.85 0 0 0-1.27 0-2.85 0-1.57 0-2.84 0-2.84 0 0 0 1.27 0 2.84z"/>
		<path id="&lt;Path&gt;" class="s8" d="m408.2 425.08c0 1.97-1.6 3.57-3.57 3.57-1.97 0-3.57-1.6-3.57-3.57 0-1.98 1.6-3.58 3.57-3.58 1.97 0 3.57 1.6 3.57 3.58z"/>
		<path id="&lt;Path&gt;" class="s8" d="m487.64 405.85c0 2.47-2 4.48-4.48 4.48-2.47 0-4.47-2.01-4.47-4.48 0-2.47 2-4.48 4.47-4.48 2.48 0 4.48 2.01 4.48 4.48z"/>
		<path id="&lt;Path&gt;" class="s8" d="m427.06 376.15c0 1.33-1.08 2.41-2.42 2.41-1.33 0-2.41-1.08-2.41-2.41 0-1.34 1.08-2.42 2.41-2.42 1.34 0 2.42 1.08 2.42 2.42z"/>
		<path id="&lt;Path&gt;" class="s8" d="m431.17 403.43c0 1.13-0.92 2.05-2.06 2.05-1.13 0-2.05-0.92-2.05-2.05 0-1.14 0.92-2.06 2.05-2.06 1.14 0 2.06 0.92 2.06 2.06z"/>
		<path id="&lt;Path&gt;" class="s8" d="m374.8 402.22c0 2-1.63 3.63-3.63 3.63-2.01 0-3.64-1.63-3.64-3.63 0-2.01 1.63-3.64 3.64-3.64 2 0 3.63 1.63 3.63 3.64z"/>
		<path id="&lt;Path&gt;" class="s8" d="m386.28 448.96c0 1.04-0.84 1.88-1.87 1.88-1.04 0-1.88-0.84-1.88-1.88 0-1.03 0.84-1.87 1.88-1.87 1.03 0 1.87 0.84 1.87 1.87z"/>
		<path id="&lt;Path&gt;" class="s8" d="m547.37 432.64c0 2.89-2.34 5.23-5.23 5.23-2.89 0-5.23-2.34-5.23-5.23 0-2.88 2.34-5.22 5.23-5.22 2.89 0 5.23 2.34 5.23 5.22z"/>
		<path id="&lt;Path&gt;" class="s8" d="m643.93 429.57c0 2.76-2.23 4.99-4.99 4.99-2.75 0-4.99-2.23-4.99-4.99 0-2.75 2.24-4.99 4.99-4.99 2.76 0 4.99 2.24 4.99 4.99z"/>
		<path id="&lt;Path&gt;" class="s8" d="m566.91 402.99c0 2.44-1.98 4.41-4.42 4.41-2.43 0-4.41-1.97-4.41-4.41 0-2.43 1.98-4.41 4.41-4.41 2.44 0 4.42 1.98 4.42 4.41z"/>
		<path id="&lt;Path&gt;" class="s8" d="m595.22 388.3c0 1.87-1.52 3.38-3.38 3.38-1.87 0-3.38-1.51-3.38-3.38 0-1.86 1.51-3.38 3.38-3.38 1.86 0 3.38 1.52 3.38 3.38z"/>
		<path id="&lt;Path&gt;" class="s8" d="m392.63 345.17c-3.51 0-6.35-2.83-6.35-6.34 0-3.51 2.84-6.35 6.35-6.35 3.51 0 6.35 2.84 6.35 6.35 0 3.51-2.84 6.34-6.35 6.34z"/>
		<path id="&lt;Path&gt;" class="s8" d="m397.48 402.22c0 2.68-2.17 4.85-4.85 4.85-2.68 0-4.85-2.17-4.85-4.85 0-2.68 2.17-4.86 4.85-4.86 2.68 0 4.85 2.18 4.85 4.86z"/>
		<path id="&lt;Path&gt;" class="s8" d="m468.62 345.17c0 0.96-0.78 1.73-1.73 1.73-0.95 0-1.72-0.77-1.72-1.73 0-0.95 0.77-1.72 1.72-1.72 0.95 0 1.73 0.77 1.73 1.72z"/>
		<path id="&lt;Path&gt;" class="s8" d="m664.39 465.68c-3.17 0-5.74-2.56-5.74-5.73 0-3.17 2.57-5.73 5.74-5.73 3.17 0 5.73 2.56 5.73 5.73 0 3.17-2.56 5.73-5.73 5.73z"/>
		<path id="&lt;Path&gt;" class="s8" d="m673.65 403.14c0 0.97-0.79 1.76-1.77 1.76-0.97 0-1.76-0.79-1.76-1.76 0-0.98 0.79-1.77 1.76-1.77 0.98 0 1.77 0.79 1.77 1.77z"/>
		<path id="&lt;Path&gt;" class="s8" d="m562.49 494.7c0 1.22-0.98 2.21-2.2 2.21-1.22 0-2.21-0.99-2.21-2.21 0-1.21 0.99-2.2 2.21-2.2 1.22 0 2.2 0.99 2.2 2.2z"/>
		<path id="&lt;Path&gt;" class="s8" d="m595.22 469.06c0 1.87-1.52 3.38-3.38 3.38-1.87 0-3.38-1.51-3.38-3.38 0-1.86 1.51-3.38 3.38-3.38 1.86 0 3.38 1.52 3.38 3.38z"/>
		<path id="&lt;Path&gt;" class="s8" d="m652.45 500.13c0 1.78 0 3.22 0 3.22 0 0 0-1.44 0-3.22 0-1.78 0-3.22 0-3.22 0 0 0 1.44 0 3.22z"/>
		<path id="&lt;Path&gt;" class="s8" d="m638.94 513.1c0 2.59-2.1 4.7-4.7 4.7-2.6 0-4.7-2.11-4.7-4.7 0-2.6 2.1-4.7 4.7-4.7 2.6 0 4.7 2.1 4.7 4.7z"/>
		<path id="&lt;Path&gt;" class="s8" d="m507.8 481.91c0 1.95 1.58 3.53 3.53 3.53 1.95 0 3.53-1.58 3.53-3.53 0-1.95-1.58-3.53-3.53-3.53-1.95 0-3.53 1.58-3.53 3.53z"/>
		<path id="&lt;Path&gt;" class="s8" d="m449.11 477.49c0 2.4 1.95 4.35 4.35 4.35 2.4 0 4.34-1.95 4.34-4.35 0-2.4-1.94-4.34-4.34-4.34-2.4 0-4.35 1.94-4.35 4.34z"/>
		<path id="&lt;Path&gt;" class="s8" d="m422.23 492.25c0 2.47 2 4.47 4.47 4.47 2.47 0 4.47-2 4.47-4.47 0-2.47-2-4.47-4.47-4.47-2.47 0-4.47 2-4.47 4.47z"/>
		<path id="&lt;Path&gt;" class="s8" d="m374.8 483.66c0 1-0.81 1.82-1.82 1.82-1 0-1.81-0.82-1.81-1.82 0-1.01 0.81-1.82 1.81-1.82 1.01 0 1.82 0.81 1.82 1.82z"/>
		<path id="&lt;Path&gt;" class="s8" d="m437.66 530.41c0 1.79-1.45 3.24-3.24 3.24-1.8 0-3.25-1.45-3.25-3.24 0-1.79 1.45-3.25 3.25-3.25 1.79 0 3.24 1.46 3.24 3.25z"/>
		<path id="&lt;Path&gt;" class="s8" d="m523.53 516.63c0 2.37-1.92 4.29-4.29 4.29-2.38 0-4.3-1.92-4.3-4.29 0-2.37 1.92-4.29 4.3-4.29 2.37 0 4.29 1.92 4.29 4.29z"/>
		<path id="&lt;Path&gt;" class="s8" d="m489.79 500.03c0 1.83-1.48 3.32-3.31 3.32-1.83 0-3.32-1.49-3.32-3.32 0-1.82 1.49-3.31 3.32-3.31 1.83 0 3.31 1.49 3.31 3.31z"/>
		<path id="&lt;Path&gt;" class="s8" d="m559.44 530.41c0 1.79-1.45 3.24-3.25 3.24-1.79 0-3.24-1.45-3.24-3.24 0-1.79 1.45-3.25 3.24-3.25 1.8 0 3.25 1.46 3.25 3.25z"/>
		<path id="&lt;Path&gt;" class="s8" d="m684.74 496.14c0 2.15-1.74 3.89-3.89 3.89-2.15 0-3.89-1.74-3.89-3.89 0-2.15 1.74-3.89 3.89-3.89 2.15 0 3.89 1.74 3.89 3.89z"/>
		<path id="&lt;Path&gt;" class="s8" d="m673.65 516.93c0 0.48-0.4 0.88-0.88 0.88-0.49 0-0.89-0.4-0.89-0.88 0-0.49 0.4-0.89 0.89-0.89 0.48 0 0.88 0.4 0.88 0.89z"/>
		<path id="&lt;Path&gt;" class="s8" d="m622.85 494.2c0 1.07-0.88 1.94-1.95 1.94-1.07 0-1.95-0.87-1.95-1.94 0-1.08 0.88-1.95 1.95-1.95 1.07 0 1.95 0.87 1.95 1.95z"/>
		<path id="&lt;Path&gt;" class="s5" d="m364.22 410.33c-4.63 16.89 10.28 43.09 33.26 43.89 22.98 0.79 63.98-41.07 63.98-41.07 0 0 28.19 47.99 57.78 40.29 29.58-7.7 33.71-43.11 33.71-43.11 0 0 13.07 15.3 25.64 10.14 12.58-5.16 2.65-36.89 2.65-36.89"/>
		<path id="&lt;Path&gt;" class="s5" d="m483.16 512.34c0 0 31.68 33.77 49.69 28.68 49.05-13.86 45.08-55.54 45.08-55.54 0 0 1.78 10.63 25.04 17.87 23.26 7.23 20.66-24.97 20.66-24.97"/>
		<path id="ಜನುಮದಿನದ  ಶುಭಾಶಯ" class="s9" aria-label="ಜನುಮದಿನದ 
ಶುಭಾಶಯ"  d="m238 782.7h22q1.8 2.9 3 6.9 1.3 4 1.3 9.1v0.6q0 12.7-7 19.4-6.9 6.7-20.1 6.7-12.9 0-19.4-6.4-6.5-6.4-6.5-17.7v-0.3l8-4q1.3 4.6 4.2 6.9 2.9 2.2 7.5 2.2 4.9 0 7.4-2.7 2.5-2.6 2.5-8v-0.5q0-3.4-0.8-6.6-0.8-3.2-2.1-5.6zm5.3 54.3v-0.3q0-1.3-0.2-2.9-0.1-1.6-0.5-2.9h23q0.9 2.3 1.3 4.9 0.5 2.5 0.5 5.2v0.4q0 12.6-6.9 19.2-7 6.6-20.3 6.6-11.6 0-17.7-4.9-6.1-5-6.9-14.4l-0.9-15.4h12.5l0.2 3.9q0.3 4.6 2.2 6.9 2 2.3 6.1 2.3 3.8 0 5.7-2.2 1.9-2.2 1.9-6.4zm-51.2-56.8q13.8 0 21.1 6.3 7.3 6.4 7.3 18.5v0.7q0 9-4.7 14.3-4.5 5.3-14.6 9.6l-6.3 2.6q-5.5 2.3-7.7 4-2.3 1.6-2.3 4.4v0.4q0 2.5 1.9 4 1.9 1.3 5.9 1.3 5.2 0 7.7-2.4 2.6-2.5 2.9-7.5l0.2-3.9h12.7v16.4h-1.1q-1 8.9-7.3 13.6-6.3 4.7-17.8 4.7-13.6 0-20.8-6.2-7.2-6.2-7.2-18.2v-0.7q0-6.2 2.2-10.7 2.3-4.5 7-7.9 4.7-3.3 12.1-6.1l5.9-2.2q5.6-2.1 7.5-3.9 2-1.9 2-5v-0.4q0-3.3-1.7-4.8-1.7-1.6-5.3-1.6-3.6 0-5.4 1.9-1.9 1.8-1.9 5.7v0.4q0 2.8 0.5 5 0.5 2.2 1.6 4.1h-20.6q-1.1-2-1.8-5-0.7-3.1-0.7-6.6v-0.7q0-12.1 7.3-18.1 7.4-6 21.4-6zm150.1 87q-11.3 0-18.4-4.5-7-4.7-10.2-14.7l-2.1-6.7q-1.2-4.1-2.5-5.5-1.4-1.5-3.7-1.5-2.8 0-4 1.9-1.3 1.9-1.3 6.1v1.6q0 5.7 1.4 11.8 1.5 6.1 3.6 10.6h-23.7q-2.1-4.1-3.4-9.8-1.3-5.8-1.3-13.1v-2q0-13.8 7.1-20.8 7.2-6.9 20.4-6.9 11.3 0 17.3 4.7 6.1 4.7 9.3 14.1l2.1 6.3q1.4 4.3 3.3 5.9 1.9 1.5 4.8 1.5 3.8 0 5.4-2.7 1.8-2.7 1.8-7.8v-3.2q0-10.7-3.8-17.6-3.8-6.9-11.9-10.2-8.2-3.4-21.4-3.4v-1.7l38.3-0.1v2.4q7.8 1 12.9 4.8 5.1 3.8 7.6 10.6 2.4 6.9 2.4 17v3.2q0 14.4-7.7 22-7.7 7.7-22.3 7.7zm4-84.5l0.3 18.6h-67.5v-18.6zm2.2-23.4h18.8q3 5 4.3 10.4 1.3 5.4 1.3 10.5 0 21.1-18.8 21.1h-9.5l-2-18.6h1.7q3.8 0 5.3-1.7 1.5-1.8 1.5-6.1 0-3.9-0.7-7.9-0.8-3.9-1.9-7.7zm41.4 22.6q15 0 22.2 9 7.3 9 7.3 26.8v13.6q0 17.7-7.1 26.8-7.1 9.1-21.9 9.1-12.8 0-19.2-7.4-6.3-7.4-6.3-21.1v-6h7.4v0.2q0 6.2 2.6 9.6 2.7 3.4 8.6 3.4 6.4 0 9.1-3.8 2.7-4 2.7-11.6v-12.7q0-7.5-2.5-10.9-2.4-3.4-7.7-3.4-0.8 0-1.7 0.1-0.8 0.1-1.6 0.2v-21.4q1.9-0.3 3.9-0.4 2-0.1 4.2-0.1zm161.3 0q15 0 22.2 9 7.3 9 7.3 26.8v13.6q0 17.7-7.1 26.8-7.1 9.1-22 9.1-12.7 0-19.1-7.4-6.3-7.4-6.3-21.1v-6h7.3v0.2q0 6.2 2.7 9.6 2.7 3.4 8.6 3.4 6.4 0 9.1-3.8 2.6-4 2.6-11.6v-12.7q0-7.5-2.4-10.9-2.4-3.4-7.7-3.4-0.8 0-1.7 0.1-0.8 0.1-1.6 0.2v-21.4q1.9-0.3 3.9-0.4 2-0.1 4.2-0.1zm-44.5 85.3q-10.9 0-17-4.7-5.9-4.7-6.9-13.6h-0.6q-1 8.9-7.1 13.6-6.2 4.7-17.7 4.7-13.7 0-20.8-6.9-7-6.9-7-20.2v-1.7q0-12.6 6.1-19.3 6.2-6.8 18-6.8 3.2 0 5.7 0.4 2.5 0.4 4.7 1.2l1.2 19.8q-1.2-0.5-2.6-0.7-1.5-0.3-3-0.3-3.4 0-5 1.6-1.6 1.5-1.6 4.8v0.2q0 3.4 1.8 5.1 1.9 1.7 5.8 1.7 4.6 0 7-2.4 2.5-2.5 2.8-7.3l0.3-5.9h23.5l0.3 6.3q0.3 4.4 2.1 6.6 1.8 2.2 5.5 2.2 3.8 0 5.5-2.6 1.7-2.6 1.7-7.8v-3.4q0-10.5-3.8-17.2-3.8-6.7-12-10-8.1-3.3-21.2-3.3v-1.7l38.2-0.1v2.4q7.8 1 12.9 4.7 5.1 3.7 7.6 10.4 2.5 6.7 2.5 16.6v3.8q0 14.7-6.8 22.3-6.9 7.5-20.1 7.5zm3.9-84.5v18.6h-77.1v-18.6zm0.4-23.4h18.8q2.9 5 4.2 10.4 1.4 5.4 1.4 10.5 0 21.1-18.9 21.1h-9.5l-1.9-18.6h1.6q3.9 0 5.4-1.7 1.5-1.8 1.5-6.1 0-3.9-0.8-7.9-0.7-3.9-1.8-7.7zm128.8 23.8q11.6 0 19.4 3.1 8 3.2 12.4 10l3.3-1.3 17.4 32.1v9.7q0 15.2-6.8 22.8-6.8 7.7-20.2 7.7-10.6 0-16.4-4.5-5.8-4.6-6.7-13.2h-0.6q-0.9 8.6-6.7 13.2-5.7 4.5-16.3 4.5-13.5 0-20.3-7.7-6.8-7.6-6.8-22.8v-6.9q0-12.2 3.4-20.6 3.5-8.3 11.1-12.9l6.5-5.6q5.3-4.3 12.3-5.9 7.1-1.7 15-1.7zm-10.1 53.8l0.5-6.4h23.4l0.4 6.4q0.3 4.3 1.9 6.5 1.6 2.2 5.1 2.2 3.8 0 5.4-2.7 1.7-2.7 1.7-8.2v-6.5q0-13.2-6.4-19.4-6.3-6.1-19.8-6.1-13.4 0-19.8 6.1-6.5 6.2-6.5 19.4v6.5q0 5.5 1.7 8.2 1.7 2.7 5.5 2.7 3.6 0 5.1-2.2 1.6-2.2 1.8-6.5zm4-83.3q30.4 0 44.5 15 14.1 14.9 14.1 45.7v15.4l-18.4-2.4v-19q0-9.8-3.2-16.5-3.2-6.7-8.7-10.6-5.5-4-12.6-5.7-7-1.8-14.7-1.8-9.4 0-14.1 2.1-4.7 2.1-4.7 6.2 0 2 1.1 3.3 1 1.4 3.1 2l-8.2 14.6q-10.3-2.3-15.2-7.3-5-5.1-5-14.1 0-13 10.7-20 10.6-6.9 31.3-6.9zm134.6 113.6q-11.4 0-18.4-4.5-7.1-4.7-10.2-14.7l-2.1-6.7q-1.2-4.1-2.6-5.5-1.3-1.5-3.6-1.5-2.8 0-4 1.9-1.3 1.9-1.3 6.1v1.6q0 5.7 1.4 11.8 1.5 6.1 3.5 10.6h-23.6q-2.1-4.1-3.4-9.8-1.3-5.8-1.3-13.1v-2q0-13.8 7.1-20.8 7.1-6.9 20.3-6.9 11.4 0 17.4 4.7 6.1 4.7 9.2 14.1l2.2 6.3q1.4 4.3 3.3 5.9 1.9 1.5 4.8 1.5 3.8 0 5.4-2.7 1.7-2.7 1.7-7.8v-3.2q0-10.7-3.8-17.6-3.7-6.9-11.8-10.2-8.2-3.4-21.4-3.4v-1.7l38.3-0.1v2.4q7.8 1 12.8 4.8 5.1 3.8 7.6 10.6 2.5 6.9 2.5 17v3.2q0 14.4-7.7 22-7.8 7.7-22.3 7.7zm4-84.5l0.3 18.6h-67.5v-18.6zm2.2-23.4h18.8q2.9 5 4.2 10.4 1.4 5.4 1.4 10.5 0 21.1-18.8 21.1h-9.6l-1.9-18.6h1.7q3.8 0 5.3-1.7 1.5-1.8 1.5-6.1 0-3.9-0.8-7.9-0.7-3.9-1.8-7.7zm59.1 68.9v6.5q0 5.5 1.7 8.2 1.6 2.7 5.4 2.7 3.6 0 5.2-2.2 1.5-2.2 1.8-6.5l0.4-6.4h23.5l0.4 6.4q0.2 4.3 1.8 6.5 1.6 2.2 5.1 2.2 3.8 0 5.5-2.7 1.7-2.7 1.7-8.2v-6.5q0-13.9-6-20.4-5.9-6.5-19.3-6.5v-1.9h30.4v2.5q6.5 1.2 10.7 4.8 4.2 3.5 6.3 9.6 2 6 2 14.6v5.8q0 15.2-6.8 22.8-6.8 7.7-20.2 7.7-10.6 0-16.3-4.5-5.8-4.6-6.7-13.2h-0.7q-0.9 8.6-6.7 13.2-5.7 4.5-16.3 4.5-13.4 0-20.3-7.7-6.8-7.6-6.8-22.8v-5.8q0-8.6 2.1-14.6 2.1-6.1 6.3-9.6 4.2-3.6 10.6-4.8v-2.5h30.4v1.9q-13.3 0-19.2 6.5-6 6.5-6 20.4zm53.2-45.5v18.6h-77.4v-18.6zm-0.2-23.4h18.8q2.9 5 4.2 10.4 1.4 5.4 1.4 10.5 0 21.1-18.8 21.1h-9.6l-1.9-18.6h1.7q3.8 0 5.3-1.7 1.5-1.8 1.5-6.1 0-3.9-0.8-7.9-0.7-3.9-1.8-7.7zm-658.4 173.5v-19.6h66.1v20h-39l-1.1-0.4zm62.1 32.9v-11.8q0-10.1-3.8-15.3-3.9-5.3-13.1-5.3-7.7 0-11.5 3.6-3.9 3.5-3.9 10.8v3.5h-27.2v-2q0-7 3.6-10.7 3.5-3.8 11.1-5v-2.4h54.8v3.3q8.2 2.2 12.4 9.2 4.1 7 4.1 19.2v5.8q0 20.1-11.5 29.9-11.4 9.7-35.4 9.7-13.2 0-22.6-3.4-9.3-3.3-14.3-10-4.9-6.7-4.9-16.5v-0.3q0-7.2 2.3-12.1 2.4-5.1 7.6-8.5 5.2-3.5 13.8-6.1l41.4-12.8 2.8 20.3-32.7 10.8q-3.1 1-5 2.1-1.9 1.1-2.7 2.5-0.9 1.3-0.9 3.2v0.2q0 2.4 1.5 4.2 1.4 1.8 4.8 2.9 3.3 1 8.8 1 10.7 0 15.6-4.8 4.9-5 4.9-15.2zm0.4-78.6h21q3.3 5.6 4.7 11.6 1.6 6 1.6 11.8 0 23.5-21.1 23.5h-10.6l-2.1-20.8h1.8q4.3 0 5.9-1.9 1.7-2 1.7-6.8 0-4.4-0.8-8.8-0.9-4.4-2.1-8.6zm45.7 25.2q16.7 0 24.8 10 8.2 10 8.2 30v15.1q0 19.7-8 29.9-7.9 10.2-24.5 10.2-14.1 0-21.3-8.3-7.1-8.2-7.1-23.6v-6.6h8.2v0.2q0 6.9 3 10.8 3 3.7 9.6 3.7 7.2 0 10.1-4.3 3-4.4 3-12.9v-14.1q0-8.4-2.7-12.2-2.7-3.8-8.6-3.8-0.9 0-1.9 0.1-0.9 0.1-1.8 0.2v-23.8q2.1-0.4 4.4-0.4 2.2-0.2 4.6-0.2zm103.7 126.8q-14 0-14-13.5v-0.5q0-6.4 3.6-12.2 3.5-6 10.4-11.3 6.9 5.3 10.5 11.3 3.5 5.8 3.5 12.2v0.5q0 13.5-14 13.5zm-26-128.7q15.5 0 23.6 7.1 8.1 7.1 8.1 20.6v0.8q0 10-5.2 15.9-5.1 5.9-16.3 10.7l-7 2.9q-6.2 2.5-8.7 4.4-2.4 1.8-2.4 5v0.4q0 2.8 2.1 4.5 2.1 1.5 6.5 1.5 5.8 0 8.6-2.8 2.8-2.8 3.1-8.3l0.2-4.3h26.6l0.2 4.4q0.3 5.1 2.4 7.6 2.1 2.5 6.5 2.5 5 0 7.2-3.7 2.1-3.7 2.1-10.9v-13.7q0-10.6-4.2-15.8-4.2-5.2-13-5.2v-1.5h26.3v2q9.1 1.7 13.5 8.4 4.5 6.6 4.5 18.9v7.4q0 18.8-7.8 28.6-7.8 9.7-23.4 9.7-12.5 0-19.3-5.3-6.8-5.2-7.8-15.2h-0.8q-1.1 10-8.1 15.2-6.9 5.3-19.8 5.3-15.1 0-23.2-7-8-6.9-8-20.2v-0.9q0-6.8 2.5-11.8 2.5-5.1 7.7-8.8 5.3-3.8 13.5-6.9l6.7-2.5q6.1-2.3 8.3-4.4 2.2-2 2.2-5.5v-0.5q0-3.6-1.9-5.3-1.9-1.7-5.9-1.7-4 0-6.1 2-2 2-2 6.4v0.4q0 3.2 0.5 5.6 0.6 2.5 1.8 4.6h-23q-1.1-2.2-2-5.6-0.8-3.4-0.8-7.3v-0.8q0-13.5 8.2-20.2 8.2-6.7 23.8-6.7zm61.5 23.6h-23.7v-20.8h23.7zm96.9 26.3v5.2l-26.2 0.7v-6.9q0-12.9-6.2-19-6.2-6.3-19.3-6.3h-50.9v-20.7h54q24.6 0 36.6 11.8 12 11.7 12 35.2zm-32.7 47.2q-16.2 0-23.9-7.4-7.6-7.6-7.6-22.2v-2.3q0-13.4 4.9-20.5 5-7.2 15.9-7.2 6.8 0 11 3.5 4.2 3.4 5.5 10.1h4.3l-1 13.3q-1.5-3.6-3.8-5.4-2.3-1.9-5.2-1.9-3.7 0-5.2 2.2-1.5 2.2-1.5 6.5v1.7q0 4.2 1.6 6.3 1.6 2 5.1 2 4 0 5.3-2.8 1.4-2.8 1.4-8.5v-9.1l25.9-1.5v7.6q0 17.6-8 26.6-7.9 9-24.7 9zm43.4-74.6v-19.6h66v20h-38.9l-1.1-0.4zm62.1 32.9v-11.8q0-10.1-3.9-15.4-3.8-5.3-13.1-5.3-7.6 0-11.5 3.7-3.8 3.5-3.8 10.7v3.6h-27.2v-2q0-7 3.5-10.7 3.6-3.8 11.1-5v-2.4h54.9v3.3q8.2 2.1 12.3 9.2 4.2 7 4.2 19.1v5.8q0 20.2-11.5 29.9-11.5 9.7-35.4 9.7-13.2 0-22.6-3.3-9.3-3.4-14.3-10-5-6.7-5-16.5v-0.3q0-7.2 2.4-12.2 2.4-5 7.6-8.4 5.2-3.5 13.8-6.1l41.4-12.8 2.8 20.3-32.7 10.7q-3.1 1-5.1 2.2-1.8 1.1-2.7 2.4-0.8 1.4-0.8 3.3v0.2q0 2.3 1.4 4.2 1.5 1.7 4.8 2.8 3.3 1.1 8.9 1.1 10.6 0 15.6-4.8 4.9-5 4.9-15.2zm0.4-78.6h21q3.2 5.6 4.7 11.6 1.5 5.9 1.5 11.7 0 23.5-21 23.5h-10.6l-2.2-20.7h1.9q4.3 0 5.9-1.9 1.7-2 1.7-6.8 0-4.4-0.9-8.8-0.8-4.4-2-8.6zm134 46.8v-1.4h26.4v2q9.3 1.7 13.6 8.4 4.4 6.7 4.4 19.1v5.4q0 19.8-8.1 29.9-8.1 10.1-25 10.1-14.4 0-21.7-7.7-7.1-7.9-7.1-22.5v-13.5h9.3v5.4q0 7 2.9 10.8 2.9 3.8 9.6 3.8 7.1 0 10.1-4.3 3-4.4 3-13v-11.4q0-10.6-4.3-15.8-4.2-5.3-13.1-5.3zm-2.3 0v-20.7h20.5l0.2 20.7zm-5.8 18.4v11.8q0 21.6-11.2 32.5-11.1 11-32.5 11-21.3 0-32.6-10.8-11.2-10.9-11.2-32.2v-12.3q0-21.2 11.2-32 11.2-10.8 32.6-10.8 21.5 0 32.6 10.8 11.1 10.8 11.1 32zm-43.7 31.7q8.4 0 12.6-4.9 4.2-5 4.2-14.6v-11.9q0-9.7-4.2-14.6-4.2-5-12.6-5-8.3 0-12.6 5-4.3 4.9-4.3 14.6v11.9q0 9.6 4.3 14.6 4.3 4.9 12.6 4.9zm70.9-96.9h21q3.3 5.6 4.7 11.6 1.6 5.9 1.6 11.7 0 23.5-21.1 23.5h-10.6l-2.2-20.7h1.9q4.3 0 5.9-1.9 1.7-2 1.7-6.8 0-4.4-0.8-8.8-0.9-4.4-2.1-8.6zm44.8 25.2q16.8 0 24.8 10 8.2 10 8.2 30v15.1q0 19.7-7.9 29.9-8 10.1-24.5 10.1-14.2 0-21.4-8.2-7.1-8.3-7.1-23.6v-6.6h8.3v0.1q0 7 2.9 10.8 3 3.8 9.6 3.8 7.2 0 10.1-4.3 3-4.4 3-13v-14.1q0-8.4-2.7-12.1-2.6-3.8-8.6-3.8-0.9 0-1.8 0.1-1 0-1.9 0.2v-23.8q2.2-0.4 4.4-0.5 2.2-0.1 4.6-0.1z"/>
	</g>
</svg>