<svg version="1.2" xmlns="http://www.w3.org/2000/svg" viewBox="0 0 1080 1080" width="1080" height="1080">
	<style>
		.s0 { fill: #402f29;stroke: #ffffff;stroke-miterlimit:10;stroke-width: 6 } 
		.s1 { fill: #d9a06a } 
		.s2 { fill: #c4a2e6 } 
		.s3 { fill: #f37c54 } 
		.s4 { fill: #000000;stroke: #000000;stroke-miterlimit:10;stroke-width: .5 } 
		.s5 { fill: #645188 } 
		.s6 { fill: #8f5138 } 
		.s7 { fill: #544677 } 
	</style>
	<g id="Layer 1">
	</g>
	<path id="&lt;Path&gt;" class="s0" d="m1044.78 539.15c0 32.83-33.93 61.9-40.06 92.92-6.33 31.97 13.77 71.77 1.57 101.18-12.41 29.93-54.88 43.8-72.69 70.4-17.95 26.81-14.62 71.33-37.34 94.06-22.73 22.72-67.25 19.39-94.06 37.34-26.6 17.81-40.47 60.28-70.4 72.69-29.41 12.2-69.21-7.9-101.18-1.57-31.02 6.13-60.09 40.05-92.92 40.05-32.82 0-61.89-33.92-92.91-40.05-31.97-6.33-71.77 13.77-101.18 1.57-29.93-12.41-43.81-54.88-70.41-72.69-26.8-17.95-71.32-14.62-94.05-37.34-22.73-22.73-19.4-67.25-37.34-94.06-17.81-26.6-60.29-40.47-72.7-70.4-12.19-29.41 7.91-69.21 1.58-101.18-6.13-31.02-40.06-60.09-40.06-92.92 0-32.82 33.93-61.89 40.06-92.92 6.33-31.96-13.77-71.76-1.58-101.18 12.41-29.92 54.89-43.8 72.7-70.4 17.94-26.8 14.62-71.32 37.34-94.05 22.73-22.73 67.25-19.4 94.06-37.34 26.6-17.81 40.47-60.29 70.4-72.7 29.41-12.19 69.21 7.91 101.18 1.58 31.02-6.14 60.09-40.06 92.91-40.06 32.83 0 61.9 33.92 92.92 40.06 31.97 6.33 71.77-13.77 101.18-1.58 29.93 12.41 43.81 54.89 70.41 72.7 26.8 17.94 71.32 14.62 94.05 37.34 22.72 22.73 19.4 67.25 37.34 94.05 17.81 26.6 60.29 40.48 72.7 70.41 12.19 29.41-7.91 69.21-1.58 101.18 6.13 31.02 40.06 60.09 40.06 92.91z"/>
	<path id="&lt;Path&gt;" class="s1" d="m637.08 334.51c0 0-18-50.56 12.37-59.59 30.38-9.03 39.37 55.09 39.37 55.09 0 0 37.13-73.12 64.13-43.87 26.99 29.25-10.13 69.83-10.13 69.83 0 0 39.37-2.33 49.5 16.79 10.12 19.12-21.38 46.12-21.38 46.12 0 0 41.63-6.46 48.38 18.14 6.75 24.61-48.38 45.98-48.38 45.98v165.37h-493.84v-168.74z"/>
	<path id="&lt;Path&gt;" class="s2" d="m636.14 327.77l-359.04 151.86 471.35-9z"/>
	<path id="&lt;Path&gt;" class="s2" d="m748.45 470.63l-5.63 177.74h-465.72v-103.5-65.24z"/>
	<path id="&lt;Path&gt;" class="s3" d="m600.84 204.26l3.62 203.29h20.82v-203.29z"/>
	<path id="&lt;Path&gt;" class="s1" d="m614.53 139.9c0 0-25.14 22.98-20.36 39.7 2.71 9.51 6.79 15.95 20.36 15.28 13.58-0.68 16.97-10.52 14.93-19.69-1.17-5.3-5.76-9.16-9.16-18.32-3.39-9.17-5.77-16.97-5.77-16.97z"/>
	<path id="&lt;Path&gt;" class="s3" d="m496.21 221.68l3.62 203.29h20.82v-203.29z"/>
	<path id="&lt;Path&gt;" class="s1" d="m509.9 157.31c0 0-25.14 22.98-20.36 39.71 2.71 9.5 6.79 15.95 20.36 15.27 13.58-0.68 16.97-10.52 14.93-19.69-1.17-5.3-5.77-9.16-9.16-18.32-3.39-9.16-5.77-16.97-5.77-16.97z"/>
	<path id="&lt;Path&gt;" class="s3" d="m413.86 237.84l3.62 203.29h20.81v-203.29z"/>
	<path id="&lt;Path&gt;" class="s1" d="m427.55 173.47c0 0-25.14 22.98-20.36 39.71 2.71 9.5 6.78 15.95 20.36 15.27 13.57-0.68 16.96-10.52 14.93-19.68-1.18-5.31-5.77-9.17-9.16-18.33-3.4-9.16-5.77-16.97-5.77-16.97z"/>
	<path id="&lt;Path&gt;" class="s4" d="m757.48 455.55c-7.83 0-15.38-3.48-15.8-3.68-0.48-0.23-0.69-0.8-0.46-1.29 0.23-0.48 0.8-0.69 1.28-0.46 0.14 0.06 13.12 6.05 22 2.19 3.45-1.5 5.87-4.33 7.19-8.42 0.8-2.48 0.5-4.79-0.92-7.05-7.53-11.99-42.86-16.95-43.22-17-0.41-0.06-0.75-0.38-0.82-0.8-0.07-0.41 0.14-0.83 0.51-1.02 8.25-4.24 28.67-17.2 24.16-26.12-4.56-9.04-33.15-2.71-43.78 0.49-0.39 0.11-0.81-0.02-1.05-0.35-0.25-0.32-0.26-0.77-0.04-1.11 0.32-0.49 31.87-49.02 26.2-62.8-0.61-1.47-1.49-1.74-2.09-1.81-8.59-1.04-33.32 29.79-42.16 41.76-0.23 0.31-0.63 0.45-0.99 0.37-0.37-0.08-0.66-0.37-0.74-0.75-2.53-12.35-10.7-45.34-18.04-49.6q-1.86-1.08-2.84-0.46c-3.13 1.98-2 14.97-1.25 23.57 0.18 2 0.34 3.91 0.46 5.61 0.03 0.53-0.37 0.99-0.9 1.03-0.52 0.02-0.99-0.36-1.03-0.9-0.12-1.69-0.28-3.58-0.45-5.57-1.13-12.9-1.68-22.96 2.13-25.38q1.98-1.24 4.86 0.43c8.5 4.94 16.54 39.72 18.51 48.79 6.53-8.68 31.44-40.86 42.08-40.86q0.31 0 0.59 0.04c1.16 0.14 2.73 0.78 3.64 3 5.41 13.12-18.76 52.63-24.98 62.43 8.85-2.4 38.21-9.47 43.6 1.2 5.29 10.47-15.09 23.16-22.47 27.33 8.79 1.47 34.97 6.66 41.75 17.45 1.72 2.73 2.1 5.66 1.12 8.68-1.5 4.64-4.28 7.87-8.26 9.6-2.46 1.06-5.14 1.46-7.79 1.46z"/>
	<path id="&lt;Path&gt;" class="s5" d="m277.1 523.57l469.48 6.1-2.12 67.05-467.36-9.91z"/>
	<path id="&lt;Path&gt;" class="s6" d="m325.24 459.27c0 0 31.82 5.02 36.91 17.49 5.09 12.48-10.8 107.57 13.99 112.15 24.79 4.58 5.83-109.75 16.26-110.71 10.44-0.97 5.37 31.99 19.34 39.64 13.96 7.66 28.6-45.6 48.95-39.64 20.34 5.95 13.98 38.37 31.78 37.74 17.8-0.64 23.52-40.34 43.23-39.18 19.71 1.17 14.1 161.23 30.89 158.05 16.79-3.17-12.04-158.71 29.08-158.05 41.12 0.67 25.22 28.37 51.92 29 26.69 0.64 43.23-26.3 57.21-27.56 13.98-1.27-13.99-37.87-23.52-43.3-9.54-5.42-88.86-62.17-108.64-56.68-19.78 5.49-59.19 27.1-38.85 51.26 20.35 24.16-15.89-3.05-43.23-9.47-27.33-6.42-48.95 3.75-39.41 22.82 9.54 19.07-40.69 26.04-52.76 11.75-12.08-14.29-23.56-16.29-23.56-16.29z"/>
	<path id="&lt;Path&gt;" class="s4" d="m277.11 480.59l-0.01-1.93 468.95-2.86 0.02 1.93z"/>
	<path id="&lt;Path&gt;" class="s5" d="m652.83 454.88c-19.29 0-34.88-15.59-34.88-34.87 0-19.29 15.59-34.88 34.88-34.88 19.28 0 34.87 15.59 34.87 34.88 0 19.28-15.59 34.87-34.87 34.87z"/>
	<path id="&lt;Path&gt;" class="s7" d="m644.58 395.63l-12.75-10.5 4.5 17.63-10.5 13.5 27-4.88 7.87 12.75v-16.12l15-1.13-17.62-7.74 7.87-16.26z"/>
	<path id="&lt;Path&gt;" class="s5" d="m574.65 418.88c-19.28 0-34.87-15.59-34.87-34.87 0-19.29 15.59-34.87 34.87-34.87 19.29 0 34.88 15.58 34.88 34.87 0 19.28-15.59 34.87-34.88 34.87z"/>
	<path id="&lt;Path&gt;" class="s7" d="m562.82 360.86l-7.76-6.39 2.74 10.73-6.4 8.22 16.45-2.97 4.79 7.77v-9.82l9.14-0.69-10.74-4.71 4.8-9.9z"/>
	<path id="&lt;Path&gt;" class="s7" d="m585.85 450.99c-16.46 0-29.77-13.3-29.77-29.76 0-16.46 13.31-29.77 29.77-29.77 16.46 0 29.77 13.31 29.77 29.77 0 16.46-13.31 29.76-29.77 29.76z"/>
	<path id="&lt;Path&gt;" class="s5" d="m581.08 426.47l4.68 8.43 1.32-10.53 8.59-5.08-15.7-3.13-1.55-8.61-3.44 8.76-8.39-2.6 7.91 7.97-7.75 7.14z"/>
	<path id="&lt;Path&gt;" class="s5" d="m504.37 380.67c10.74 15.98 6.49 37.65-9.5 48.39-15.98 10.74-37.65 6.49-48.39-9.49-10.74-15.99-6.49-37.66 9.49-48.4 15.99-10.74 37.66-6.49 48.4 9.5z"/>
	<path id="&lt;Path&gt;" class="s7" d="m454.98 384.49l-16.43-1.61 13.56 12.12-1.19 17.06 19.69-19.1 13.65 6.19-8.99-13.39 11.82-9.29-18.95 3.4-2.53-17.89z"/>
	<path id="&lt;Path&gt;" class="s5" d="m419.41 394.39c10.74 15.98 6.49 37.65-9.5 48.39-15.98 10.74-37.65 6.49-48.39-9.49-10.74-15.99-6.49-37.66 9.49-48.4 15.99-10.74 37.66-6.49 48.4 9.5z"/>
	<path id="&lt;Path&gt;" class="s7" d="m367.73 401.22l-10.01-0.97 8.26 7.38-0.72 10.39 11.99-11.64 8.31 3.77-5.47-8.15 7.2-5.66-11.54 2.07-1.54-10.89z"/>
	<path id="&lt;Path&gt;" class="s7" d="m445.22 421.88c9.17 13.65 5.54 32.14-8.11 41.31-13.64 9.17-32.14 5.54-41.3-8.1-9.17-13.65-5.54-32.14 8.1-41.31 13.65-9.17 32.14-5.54 41.31 8.1z"/>
	<path id="&lt;Path&gt;" class="s5" d="m419.48 445.5l8.58 4.39-4.77-9.48 4.29-9.01-14.77 6.16-6.09-6.28 2.02 9.19-8.41 2.52 11.02 2.2-2.46 10.25z"/>
	<path id="ಜನ್ಮದಿನದ ಶುಭಾಶಯಗಳು!" class="s2" aria-label="ಜನ್ಮದಿನದ
ಶುಭಾಶಯಗಳು!"  d="m337.2 743.2q-7.4 0-12.2-2.9-4.9-3-9-8.7h6.9q-3.9 5.1-8 7.6-3.9 2.4-8 3.3-4 0.7-8.2 0.7-6.4 0-10.6-2.1-4.2-2.2-6.4-5.6-2-3.6-2-7.9 0-4 1.3-7.1 1.2-3.1 4.5-6 3.5-3 9.6-6.6 3.7-2.1 5.1-3.6 1.4-1.5 1.4-3.3 0-1-0.6-1.6-0.3-0.8-1.3-1.1-0.9-0.4-2.4-0.4-2.5 0-3.8 1.2-1 1-1 2.7 0 1.1 0.3 2.2 0.4 1.2 0.8 2.1l-13.5 4.8q-1.2-2-2.1-4.8-0.8-2.9-0.8-5.7 0-4.3 2.2-7.5 2.2-3.3 6.6-5 4.7-1.9 11.8-1.9 7.5 0 11.7 2.2 4.4 2.2 6.2 5.5 1.8 3.2 1.8 6.6 0 3.8-1.4 6.8-1.4 2.8-4.7 5.6-3.2 2.8-9 6.2-4.1 2.5-5.4 4-1.1 1.2-1.1 2.8 0 1.9 1.3 2.8 1.5 0.9 4.4 0.9 5 0 7.5-2.6 2.7-2.7 3.2-7.1h14.4q0.6 5 2.8 7.3 2.3 2.2 6.6 2.2 3.6 0 5.4-1.6 1.9-1.9 1.9-4.7 0-1.9-0.5-3.5-0.4-1.8-1.5-3.2l13.9-6.3q2.3 3.1 3.3 6.8 1.1 3.6 1.1 7.5 0 6.1-2.7 10.4-2.4 4.2-7.5 6.4-4.9 2.2-12.3 2.2zm-4.7-30q-6.1 0-10.6-1.4-4.3-1.7-7.3-4-2.9-2.6-5-5.4l-1.8-6.4 6.1-4.4q3.5 4.7 7.7 7.4 4.3 2.6 8.7 2.6 3.4 0 5.5-1.6 2.1-1.8 2.1-5.2 0-1.4-0.4-2.6-0.1-1.2-0.5-2.4l14.1-3.8q1 1.9 1.6 4.6 0.7 2.6 0.7 5.7 0 4.7-2.5 8.6-2.3 3.8-6.9 6.1-4.6 2.2-11.5 2.2zm81.8 30q-5.2 0-9.2-1.4-3.9-1.5-7.2-4.3-3.3-2.8-6.7-6.8-1.7-2-2.9-3.1-1.1-1.2-1.9-1.7-0.8-0.5-1.8-0.5-1.7 0-2.7 1.2-0.8 1.1-0.8 2.9 0 2.3 0.9 4.6 1.1 2.2 2.9 4.9l-14.5 5.4q-2.5-3.3-4-7.5-1.5-4.3-1.5-8.1 0-5.1 2-8.8 2.1-4 6.1-6.2 4.2-2.2 10.5-2.2 5.7 0 10.1 2.3 4.5 2.3 9.3 7.9 2.3 2.6 4 4.3 1.7 1.6 3.3 2.4 1.6 0.7 3.4 0.7 2.7 0 4.1-1.8 1.6-2 1.6-5.9 0-4-2.1-7.9-1.9-3.9-5.5-7.1-3.6-3.4-8.5-5.7h-38.1v-13.6h43q4.8 0 6.9-0.3 2.1-0.4 3.2-1.1 1-0.7 1.4-1.6 0.4-1 0.4-2.5 0-2.4-1.2-4.7-1.2-2.3-3.6-5.2l12.1-7.1q4.9 6 6.5 10.6 1.7 4.5 1.7 9 0 3-1 6-0.9 2.9-3.2 5.1-2.2 2.1-5.3 3.4-2.9 1.1-6.9 1.5l-2.2-0.1 4.5-1.9q4.3 3 7.4 6.7 3.3 3.6 4.9 8 1.8 4.4 1.8 9.7 0 10.2-5.6 15.4-5.5 5.1-15.6 5.1zm38.6 39.6q-10.1 0-15.8-5-5.5-5-5.5-13 0-4.2 1.8-7.9 2-3.8 5.7-6.4 3.9-2.8 9.7-3.9 1.3-0.1 2.7-0.2 1.4-0.2 3-0.2 6.5 0 10.8 2.7 4.5 2.7 4.5 8.8 0 5.5-3.7 8.4-3.5 2.9-10.1 2.9-3.9 0-6.9-1.3-2.8-1.5-4.3-3.9-1.6-2.6-1.6-5.8 0-3.1 0.3-5.4 0.4-2.3 0.7-4.3 0.4-2.1 0.4-4.3 0-2.6-1.3-4.1-1.2-1.6-4-2.7l6.4-8.2q4.4 1.8 6.8 4.8 2.4 2.9 2.4 7.1 0 2.8-0.7 5.6-0.7 2.7-1.4 5.4-0.7 2.5-0.7 4.9 0 2.4 1.2 3.2 1.4 0.7 2.9 0.7 1.6 0 2.4-0.7 0.9-0.9 0.9-2 0-1.3-1.1-2.1-0.9-1-3.7-1-1.6 0-3.3 0.3-1.6 0.2-3.2 0.8-0.6 0.2-1.3 0.1-0.6 0-1.1 0.4-1.8 1-3 3.1-1.2 2-1.2 4.5 0 4.6 3.1 7 3 2.3 8.8 2.3 4.4 0 8.3-1.4 4.1-1.4 7.1-4.6l7.5 7q-4.7 4.3-10.3 6.4-5.5 2-13.2 2zm34.8-39.6q-5.9 0-10.3-2.5-4.3-2.5-6.6-7.6-2.4-5.1-2.4-12.8 0-7.3 2.7-13.2 2.9-6.1 7.9-10.5 5.2-4.4 11.9-6.7 6.6-2.4 14.4-2.4 5.4 0 9.7 1.3 4.6 1.4 8.1 3.9 3.6 2.5 6.3 6.1l0.4-0.2q-1.6-3.2-4.2-6.4-2.6-3.3-6.5-6.1-3.7-2.9-8.7-4.6-5.1-1.8-11.5-1.8-6.5 0-9.3 1.8-2.7 1.7-2.7 4.7 0 1.7 0.8 3.4 1 1.6 2.5 2.8l-10.6 8.1q-2.7-2.5-4.5-5.2-1.5-3-2.3-5.8-0.7-2.9-0.7-5.4 0-6.5 3.4-10.4 3.5-4 9.3-5.7 5.9-1.9 13.1-1.9 7.6 0 13.5 1.6 6.1 1.5 10.7 4.3 4.7 2.8 8.2 6.4 5.4 5.4 8.2 12 2.9 6.3 3.9 13.2 1.1 6.7 1.1 13 0 9.8-2.4 15.6-2.4 5.9-6.8 8.4-4.3 2.6-10.4 2.6-5.1 0-8.9-1.3-3.8-1.4-6.7-3.8-2.9-2.6-5.6-6.3l7.4-0.7q-3.6 4.6-7.1 7.3-3.2 2.6-6.9 3.8-3.6 1-8.4 1zm3.6-14q3.3 0 5.1-2.5 2-2.6 2.4-7h14.5q0.2 5.1 2.4 7.4 2.4 2.1 5 2.1 3.1 0 4.8-2.1 1.8-2.3 1.8-7.1 0-3.6-1.3-7-1.3-3.5-3.8-6.1-2.6-2.8-6.5-4.4-3.8-1.7-8.9-1.7h-1.7q-4.9 0-8.8 1.6-3.7 1.5-6.3 4.2-2.6 2.7-4 6.2-1.3 3.5-1.3 7.4 0 4.6 1.7 6.9 1.7 2.1 4.9 2.1zm108 14q-5.2 0-9.2-1.4-3.9-1.5-7.2-4.3-3.3-2.8-6.7-6.8-1.7-2-2.9-3.1-1.1-1.2-1.9-1.7-0.8-0.5-1.8-0.5-1.7 0-2.7 1.2-0.8 1.1-0.8 2.9 0 2.3 0.9 4.6 1.1 2.2 2.9 4.9l-14.5 5.4q-2.5-3.3-4-7.5-1.5-4.3-1.5-8.1 0-5.1 2-8.8 2.1-4 6.1-6.2 4.2-2.2 10.5-2.2 5.7 0 10.1 2.3 4.5 2.3 9.3 7.9 2.3 2.6 4 4.3 1.7 1.6 3.3 2.4 1.6 0.7 3.4 0.7 2.7 0 4.1-1.8 1.6-2 1.6-5.9 0-4-2.1-7.9-1.9-3.9-5.5-7.1-3.6-3.4-8.5-5.7h-38.1v-13.6h43q4.8 0 6.9-0.3 2.1-0.4 3.2-1.1 1-0.7 1.4-1.6 0.4-1 0.4-2.5 0-2.4-1.2-4.7-1.2-2.3-3.6-5.2l12.1-7.1q4.9 6 6.5 10.6 1.7 4.5 1.7 9 0 3-1 6-0.9 2.9-3.2 5.1-2.2 2.1-5.3 3.4-2.9 1.1-6.9 1.5l-2.2-0.1 4.5-1.9q4.3 3 7.4 6.7 3.3 3.6 4.9 8 1.8 4.4 1.8 9.7 0 10.2-5.6 15.4-5.5 5.1-15.6 5.1zm46.4 0q-8.9 0-14.1-5.6-5.2-5.6-5.2-16.1 0-5.4 1.6-9.7 1.6-4.5 4.9-7.9 3.2-3.6 8-6l2 2.9h-16.5v-13.6h47.7q4.9 0 6.9-0.3 2.1-0.4 3.2-1.1 1-0.7 1.4-1.6 0.5-1 0.5-2.5 0-2.4-1.3-4.7-1.2-2.3-3.6-5.2l12.1-7.1q4.9 6 6.5 10.6 1.7 4.5 1.7 9 0 3-0.9 6-1 2.9-3.2 5.1-1.2 1.1-2.7 2.1-1.3 0.8-3.1 1.5-1.7 0.6-3.9 1l1.3-1.6q4.2 2.3 6.9 5.7 2.8 3.4 4.2 7.9 1.4 4.2 1.4 9.4 0 10.6-5.3 16.2-5.3 5.6-14.3 5.6-5.1 0-8.9-1.3-3.8-1.4-6.7-3.8-2.9-2.6-5.6-6.3l7.4-0.7q-3.6 4.6-7.1 7.3-3.2 2.6-6.9 3.8-3.6 1-8.4 1zm3.6-14q3.3 0 5.1-2.5 2-2.6 2.4-7h14.5q0.2 5.1 2.4 7.4 2.4 2.1 5 2.1 3.1 0 4.8-2.1 1.8-2.3 1.8-7.1 0-3.6-1.3-7-1.3-3.5-3.8-6.2-2.6-2.8-6.5-4.3-3.8-1.7-8.9-1.7h-1.7q-4.9 0-8.8 1.6-3.7 1.5-6.3 4.2-2.6 2.7-4 6.2-1.3 3.5-1.3 7.4 0 4.6 1.7 6.9 1.7 2.1 4.9 2.1zm-349.3 131q-6.8 0-11.7-2-4.8-1.9-7.4-5.4-2.5-3.6-2.5-8.5 0-5 2.3-7.9 2.4-3 6.4-4.5 4.2-1.6 9.4-2.3 4.2-0.6 7-1.5 2.8-1 4.2-3 1.4-2.1 1.4-5.7 0-2.6-1.1-4.6-1.1-2-3.3-3.1-2.2-1.2-5.6-1.2-3.9 0-6.1 1.2-2.2 1.1-3.2 2.9-0.8 1.7-0.8 3.7 0 1.6 0.3 3 0.5 1.3 1.2 2.5l-4.8 2q-1-2-1.6-3.9-0.6-1.9-0.6-4 0-2.7 1.6-5 1.7-2.4 5.1-3.9 3.6-1.6 9.3-1.6 4.1 0 7.3 1.6 3.4 1.5 5.2 4.3 1.9 2.8 1.9 6.8 0 4.7-2 7.6-2 2.9-5.6 4.5-3.5 1.4-8.3 2.1-4.6 0.6-7.9 1.7-3.1 1-4.9 3-1.5 1.9-1.5 5.3 0 3 1.5 5.5 1.7 2.4 5.2 3.8 3.7 1.4 9.6 1.4 7.5 0 13-2.2 5.5-2.5 8.4-7.3 3.2-4.8 3.2-12.1 0-6.6-2.4-11-2.1-4.5-5.4-7.4-3.3-2.9-6.4-4.7l0.6-1.3 3.9-0.1q5.1 2.7 8.3 6.5 3.4 3.7 5 8.4 1.7 4.5 1.7 9.7 0 8.6-3.7 14.7-3.5 5.8-10.3 8.9-6.6 3.1-15.9 3.1zm-9.3-49.4h-12.3v-5h32.8q5.2 0 7.5-0.5 2.4-0.4 3.7-1.6 1.2-1 1.7-2.4 0.5-1.4 0.5-3.2 0-3-1.4-6-1.4-3.1-4.8-6.7l4.2-2.9q4.1 4.6 5.7 8.4 1.6 3.7 1.6 7.5 0 2.4-0.9 4.8-0.7 2.3-2.6 3.9-1.4 1.3-3.3 2.1-1.9 0.8-4.6 1.2-2.6 0.4-6.5 0.4h-4.4l-9-1.2zm55.8 49.4q-7.4 0-12.7-3.6-5.3-3.7-9.5-9.1l3.2-3.5q4.1 5.1 8.5 8.2 4.4 2.9 10.7 2.9 6.2 0 9.9-4.2 3.7-4.2 3.7-12.1 0-7-2.5-12.6-2.5-5.6-7.1-9.8-4.4-4.2-10.6-7l2.6-4.9q6.7 3.2 11.8 8.2 5.3 4.8 8.1 11.3 3 6.4 3 14.6 0 6.3-2.2 11.3-2.1 4.7-6.3 7.6-4.3 2.7-10.6 2.7zm43 0q-5.1 0-8.5-1.9-3.5-2-5.2-5.1-1.6-3.2-1.6-6.9 0-3.9 1.5-6.8 1.5-3 4.3-5.4 2.8-2.6 6.7-5.1 4.4-2.8 6.5-5.3 2.3-2.5 2.3-6.1 0-2.2-0.9-4-0.8-1.9-2.8-3-1.9-1.1-5.4-1.1-4.6 0-6.9 2.1-2.3 2.1-2.3 5.7 0 1.9 0.5 3.6 0.7 1.5 1.7 3.2l-4.5 2.1q-1.6-2.6-2.3-4.7-0.7-2.3-0.7-4.6 0-3.3 1.6-6 1.6-2.8 4.8-4.5 3.3-1.8 8.1-1.8 5.5 0 8.5 2 3.2 2 4.5 5 1.4 2.9 1.4 6 0 3.4-1.4 6.1-1.3 2.6-3.9 5-2.5 2.2-6.2 4.6-4.9 3.2-7.4 5.9-2.4 2.7-2.4 6.9 0 4.6 2.8 6.9 3 2.1 7.4 2.1 6.9 0 10.3-3.7 3.4-3.7 4-10.6h5q0.7 7.4 4.1 10.9 3.5 3.4 9 3.4 5.9 0 9.4-4.1 3.7-4.2 3.7-12.4 0-6.3-2.3-11.6-2.3-5.4-7-9.6-4.5-4.3-11.4-7l8.5-0.3q5.6 2.9 9.5 7.1 3.9 4.1 5.9 9.4 2.1 5.3 2.1 11.7 0 7-2.3 11.9-2.2 4.9-6.4 7.5-4.1 2.5-9.8 2.5-4.1 0-7.3-1.4-3-1.4-5.3-4.2-2.2-2.8-3.9-7.1h1.9q-1.6 4.3-4 7.1-2.3 2.9-5.7 4.2-3.3 1.4-8.2 1.4zm20.1 12.9h-6.1l0.6-16.5h4.9zm20.1-62.3h-19.8v-4.9h19.8zm52.8 25q0 8-2.4 13.6-2.4 5.3-6.7 8.2-4.3 2.6-10.2 2.6-5.1 0-8.7-1.9-3.4-2-5.2-5.3-1.7-3.4-1.7-7.6 0-4.3 1.4-7.1 1.4-2.8 3.7-4.1 2.3-1.4 4.8-1.4 2.7 0 4.1 1.4 1.3 1.3 1.3 3.4 0 2.1-1.2 3.3-1 1-2.7 1-2 0-3.1-1.1-0.9-1.2-0.9-3.5l1-0.1q-1.6 1-2.7 3-1 1.9-1 4.9 0 4.4 2.6 7.4 2.7 2.8 8.3 2.8 4.1 0 7.1-1.9 3.2-2 5-6.3 1.9-4.4 1.9-11.3 0-6.1-1.6-10.6-1.5-4.6-4.4-7.7-2.1-2.3-4.9-3.8-2.6-1.4-6.6-2.1-3.9-0.8-9.9-0.8h-28.6v-5h29.7q6.5 0 10.9 1 4.6 0.8 7.8 2.8 3.2 1.8 5.7 4.5 3.6 3.7 5.4 9.3 1.8 5.5 1.8 12.4zm29.6 24.4q-6.8 0-11.8-2-4.7-1.9-7.4-5.4-2.5-3.6-2.5-8.5 0-5 2.3-7.9 2.5-3 6.5-4.5 4.2-1.6 9.3-2.3 4.3-0.6 7.1-1.5 2.8-1 4.1-2.9 1.5-2.1 1.5-5.7 0-2.7-1.2-4.7-1-2-3.3-3.1-2.2-1.2-5.5-1.2-3.9 0-6.2 1.2-2.2 1.1-3.1 2.9-0.9 1.7-0.9 3.7 0 1.6 0.4 3.1 0.5 1.2 1.2 2.4l-4.8 2q-1-2-1.7-3.9-0.5-1.9-0.5-4 0-2.6 1.6-5 1.6-2.4 5.1-3.9 3.5-1.5 9.3-1.5 4.1 0 7.3 1.5 3.3 1.5 5.1 4.4 2 2.7 2 6.7 0 4.7-2.1 7.6-1.9 2.9-5.5 4.5-3.6 1.4-8.3 2.1-4.6 0.6-7.9 1.7-3.1 1-4.9 3-1.6 1.9-1.6 5.3 0 3 1.6 5.5 1.7 2.4 5.2 3.8 3.7 1.5 9.6 1.5 7.5 0 12.9-2.3 5.5-2.5 8.5-7.2 3.1-4.9 3.1-12.1 0-6.7-2.3-11.1-2.2-4.5-5.5-7.4-3.2-2.9-6.4-4.7l0.6-1.3 4-0.1q5 2.7 8.3 6.5 3.4 3.8 4.9 8.4 1.7 4.5 1.7 9.8 0 8.5-3.6 14.6-3.6 5.8-10.4 9-6.5 3-15.8 3zm-9.4-49.4h-12.3v-5h32.9q5.1 0 7.5-0.4 2.4-0.5 3.7-1.7 1.2-1 1.6-2.3 0.6-1.5 0.6-3.3 0-3-1.4-6-1.5-3.1-4.8-6.7l4.2-2.9q4.1 4.7 5.6 8.4 1.6 3.7 1.6 7.5 0 2.4-0.8 4.8-0.7 2.3-2.6 4-1.4 1.2-3.3 2.1-1.9 0.7-4.6 1.1-2.7 0.4-6.5 0.4h-4.4l-9-1.2zm72.4 49.4q-6.6 0-11.3-2.2-4.7-2.4-7.7-6.4-3-4-4.5-8.9-1.4-5.1-1.4-10.5 0-7.8 2.8-13.9 3-6.4 8.5-10 5.6-3.6 13.4-3.6 6.6 0 11.2 2.3 4.8 2.3 7.7 6.4 3 3.9 4.4 8.9 1.4 4.9 1.4 10.1 0 8-2.9 14.4-2.9 6.2-8.4 9.8-5.4 3.6-13.2 3.6zm-0.2-5.1q6.3 0 10.6-2.8 4.3-2.9 6.6-8 2.2-5.2 2.2-12 0-6.6-2.1-11.6-2.2-5.1-6.5-8-4.3-2.9-10.9-2.9-6.1 0-10.4 2.8-4.3 2.7-6.7 7.8-2.2 5-2.2 11.9 0 6.9 2.1 12.1 2.3 5.1 6.6 7.9 4.4 2.8 10.7 2.8zm40.4 5.1q-7.4 0-12.7-3.5-5.2-3.7-9.4-9l3.2-3.7q4 5.1 8.3 8.2 4.6 2.9 10.7 2.9 6.3 0 9.9-4.2 3.8-4.1 3.8-12.1 0-6.7-2.6-12.2-2.4-5.7-7.2-9.7-4.7-4.2-11.5-6.4l8.2-0.6q6 2.7 10 6.9 4.2 4.2 6.3 9.8 2.1 5.5 2.1 12.1 0 4.2-1.2 8.1-1 3.9-3.4 7-2.2 3-5.8 4.8-3.6 1.6-8.7 1.6zm35.5 0q-7.4 0-12.7-3.5-5.2-3.7-9.4-9l3.1-3.7q4.1 5.1 8.5 8.2 4.5 2.9 10.7 2.9 6.2 0 9.8-4.2 3.8-4.1 3.8-12.1 0-7-2.6-12.5-2.4-5.7-6.9-9.9-4.5-4.2-10.7-7l2.6-4.9q6.7 3.2 11.8 8.2 5.3 4.8 8.1 11.3 3 6.5 3 14.7 0 6.2-2.2 11.2-2.1 4.8-6.4 7.6-4.1 2.7-10.5 2.7zm-17.7-61.8q0 2.4-0.7 4.8-0.8 2.3-2.7 4-2.4 2.1-5.7 2.9-3.3 0.7-8.2 0.7h-13.1v-5h11.7q5.1 0 7.5-0.4 2.5-0.5 3.8-1.6 1.1-1 1.6-2.4 0.6-1.4 0.6-3.3 0-3-1.5-6-1.4-3.1-4.7-6.7l4.2-2.8q4.1 4.6 5.6 8.3 1.6 3.7 1.6 7.5zm71.5 12.2q-3.9 0-7.1 1.7-3 1.7-5.3 4.8-2.3 3-3.9 7.1-1.2 2.7-1.9 6.1-0.6 3.2-1 7.5-0.3 4.2-0.3 9.8v11.4h-5.7v-12.5q0-8.2 1.2-15.4 1.2-7.2 4.4-12.6 3.5-5.7 9.9-8.8l1.6 1.1h-17.4v-5h31.6q5.2 0 7.6-0.4 2.5-0.5 3.8-1.6 1.2-1 1.7-2.4 0.5-1.4 0.5-3.3 0-3-1.4-6-1.4-3.1-4.8-6.7l4.2-2.8q4.1 4.6 5.7 8.3 1.6 3.7 1.6 7.5 0 4.4-1.9 7-1.9 2.6-5.2 3.9-3.3 1.2-7.7 1.4l0.1-0.6q6.4 3.6 9.5 9.1 3.2 5.5 4.2 12.4 1 6.9 1 14.8v12.6h-5.7v-10.8q0-6-0.4-10.4-0.3-4.5-1.1-7.9-0.6-3.5-1.8-6.3-2.6-6.2-6.6-9.6-3.8-3.4-9.4-3.4zm64.6 49.6q-3.6 0-6.9-1.1-3-1.2-5-3.5-1.9-2.5-1.9-6.2 0-3 1.8-5.4 1.9-2.4 4.7-3.6l-0.2 1.2q-7.2-0.9-12.5-3.5-5.3-2.8-8.1-7.1-2.8-4.3-2.8-9.9 0-5.1 1.9-8.7 2-3.7 5.5-5.6 3.7-2.1 8.4-2.1 3.8 0 6.6 1.4 2.8 1.3 4.4 3.8 1.6 2.4 1.6 5.7 0 3.3-1.5 6.1-1.5 2.8-4.8 4.5-3.3 1.6-8.8 1.6-2.7 0-5.5-0.8-2.6-0.7-4.7-2.1l0.1-4.5q2.2 1.4 4.6 2.2 2.5 0.6 5 0.6 5.6 0 8-1.9 2.5-2.1 2.5-5.5 0-2.9-2.1-4.7-2-1.8-5.8-1.8-4.8 0-7.8 3.1-2.8 3.1-2.8 8.4 0 3.4 1.4 6.4 1.4 2.9 4.5 5.1 3.1 2.2 8.1 3.5 5 1.3 12.4 1.7 11.7-0.3 17.2-3.9 5.7-3.8 5.7-10.5 0-4.9-2.7-7.8-2.6-2.8-6.4-4.5h-9v-5h5q5.1 0 7.5-0.4 2.5-0.5 3.8-1.6 1.2-1 1.7-2.4 0.5-1.4 0.5-3.3 0-3-1.5-6-1.3-3.1-4.7-6.7l4.2-2.8q4.1 4.6 5.7 8.3 1.6 3.7 1.6 7.5 0 4.9-2.6 7.9-2.5 2.8-7.6 3.8l-0.8-1.9q3.1 1.4 5.5 3.4 2.4 2 3.7 4.9 1.4 2.7 1.4 6.6 0 4.5-1.7 7.8-1.6 3.3-4.6 5.6-2.9 2.2-6.9 3.5-3.9 1.3-8.4 1.6l0.4-1.5q3.1 1.2 4.9 3.5 1.8 2.2 1.8 5.7 0 4.9-3.7 8-3.6 2.9-10.3 2.9zm0.1-4.7q4.1 0 6.4-1.5 2.4-1.6 2.4-5.1 0-3.1-2.5-5-2.4-1.9-6.3-2.3-4.2 0.3-6.6 2.3-2.3 1.9-2.3 5 0 3 2.1 4.9 2.3 1.7 6.8 1.7zm44.3 4.7q-5.5 0-9.9-1.6-4.1-1.8-7.7-4.8-3.3-3.1-6.2-7-2.8-4-5.3-8.6l4.6-2.9q3.4 6.4 6.8 10.9 3.7 4.4 7.9 6.7 4.4 2.2 10 2.2 6.2 0 9.9-4.2 3.8-4.2 3.8-12.4 0-6.9-2.6-12.3-2.4-5.6-6.9-9.8-4.5-4.2-10.8-7l2.7-4.9q6.7 3.2 11.8 8.1 5.2 4.8 8.1 11.2 3 6.3 3 14.2 0 9.9-5 16.2-4.7 6-14.2 6zm39.3-69.1l-1.3 50.5h-4l-1.3-50.5zm-7.6 64.3q0-2.4 1.1-3.6 1.1-1.2 3.1-1.2 2.1 0 3.1 1.2 1.3 1.2 1.3 3.6 0 2.4-1.3 3.6-1 1.2-3.1 1.2-2 0-3.1-1.2-1.1-1.2-1.1-3.6z"/>
</svg>