<svg version="1.2" xmlns="http://www.w3.org/2000/svg" viewBox="0 0 1080 1080" width="1080" height="1080">
	<style>
		.s0 { fill: #eecaad;stroke: #ffffff;stroke-miterlimit:10;stroke-width: 6 } 
		.s1 { fill: #ffffff } 
		.s2 { fill: #d9a06a } 
		.s3 { fill: #bf8962 } 
		.s4 { fill: none;stroke: #000000;stroke-miterlimit:10;stroke-width: .5 } 
		.s5 { fill: #8f5138 } 
		.s6 { fill: #367755 } 
		.s7 { fill: #bf503c } 
		.s8 { fill: #ffffff;stroke: #000000;stroke-linecap: round;stroke-linejoin: round;stroke-width: .5 } 
		.s9 { fill: #645188 } 
		.s10 { fill: #544677 } 
	</style>
	<g id="Layer 1">
	</g>
	<path id="&lt;Path&gt;" class="s0" d="m1046.17 540.09c0 21.11-59.07 38.15-61.73 58.54-2.72 20.86 49.93 52.53 44.61 72.46-5.42 20.26-66.89 21.42-74.82 40.53-8.01 19.32 34.58 63.62 24.2 81.57-10.46 18.07-70.12 3.23-82.78 19.7-12.7 16.53 17.01 70.34 2.29 85.05-14.71 14.72-68.53-14.98-85.05-2.28-16.48 12.65-1.63 72.31-19.71 82.77-17.94 10.38-62.24-32.21-81.57-24.2-19.1 7.93-20.26 69.4-40.52 74.82-19.93 5.32-51.6-47.33-72.46-44.61-20.39 2.66-37.43 61.73-58.54 61.73-21.12 0-38.16-59.07-58.55-61.73-20.86-2.72-52.53 49.93-72.46 44.61-20.26-5.42-21.42-66.89-40.52-74.82-19.33-8.01-63.63 34.58-81.57 24.2-18.08-10.46-3.23-70.12-19.71-82.78-16.52-12.7-70.34 17.01-85.05 2.29-14.72-14.71 14.99-68.53 2.29-85.05-12.66-16.48-72.32-1.64-82.78-19.71-10.38-17.94 32.21-62.24 24.2-81.57-7.93-19.1-69.4-20.26-74.81-40.52-5.33-19.93 47.32-51.6 44.6-72.46-2.66-20.39-61.73-37.43-61.73-58.54 0-21.12 59.07-38.16 61.73-58.55 2.72-20.86-49.93-52.53-44.6-72.46 5.41-20.26 66.89-21.42 74.81-40.52 8.01-19.33-34.58-63.63-24.2-81.57 10.46-18.08 70.12-3.23 82.78-19.71 12.7-16.52-17-70.34-2.29-85.05 14.72-14.72 68.53 14.99 85.05 2.29 16.48-12.66 1.64-72.32 19.71-82.78 17.95-10.38 62.24 32.21 81.57 24.2 19.11-7.93 20.26-69.4 40.53-74.81 19.92-5.33 51.59 47.32 72.45 44.6 20.39-2.66 37.43-61.73 58.55-61.73 21.11 0 38.15 59.07 58.54 61.73 20.86 2.72 52.53-49.93 72.46-44.6 20.26 5.41 21.42 66.89 40.53 74.81 19.32 8.01 63.62-34.58 81.57-24.2 18.07 10.46 3.23 70.12 19.7 82.78 16.53 12.7 70.34-17 85.05-2.29 14.72 14.72-14.98 68.53-2.28 85.05 12.65 16.48 72.31 1.64 82.77 19.71 10.38 17.95-32.21 62.24-24.2 81.57 7.93 19.11 69.4 20.26 74.82 40.53 5.32 19.92-47.33 51.59-44.61 72.45 2.66 20.39 61.73 37.43 61.73 58.55z"/>
	<path id="&lt;Path&gt;" class="s1" d="m427.31 270.99l3.61 144.29h20.71v-144.29z"/>
	<path id="&lt;Path&gt;" class="s2" d="m440.93 213.33c0 0-25.01 20.58-20.26 35.57 2.7 8.51 6.76 14.28 20.26 13.68 13.51-0.61 16.89-9.43 14.86-17.63-1.17-4.75-5.74-8.21-9.12-16.42-3.37-8.21-5.74-15.2-5.74-15.2z"/>
	<path id="&lt;Path&gt;" class="s1" d="m505.43 269.37l3.6 144.29h20.72v-144.29z"/>
	<path id="&lt;Path&gt;" class="s2" d="m519.05 211.71c0 0-25.01 20.58-20.26 35.57 2.7 8.51 6.75 14.28 20.26 13.68 13.51-0.61 16.89-9.43 14.86-17.64-1.17-4.74-5.74-8.2-9.12-16.41-3.37-8.21-5.74-15.2-5.74-15.2z"/>
	<path id="&lt;Path&gt;" class="s1" d="m596.61 272.61l3.6 144.29h20.71v-144.29z"/>
	<path id="&lt;Path&gt;" class="s2" d="m610.23 214.95c0 0-25.02 20.59-20.26 35.57 2.7 8.51 6.75 14.29 20.26 13.68 13.51-0.61 16.88-9.42 14.86-17.63-1.18-4.75-5.74-8.21-9.12-16.42-3.38-8.21-5.74-15.2-5.74-15.2z"/>
	<path id="&lt;Path&gt;" class="s3" d="m261.9 559.23l3.32 128.08h525.78l13.34-128.08z"/>
	<path id="&lt;Path&gt;" class="s2" d="m263.87 635.22l0.72 27.72 529.43-4.61 6.01-40.09z"/>
	<path id="&lt;Path&gt;" class="s3" d="m315.65 416.97l19.81 147.12h394.87l13.51-147.12z"/>
	<path id="&lt;Path&gt;" class="s2" d="m327.4 494.43h408.43l-1.42 25.21h-404.93z"/>
	<path id="&lt;Path&gt;" class="s3" d="m385.91 668.08c-1.35 0-8.11 12.58-8.11 12.58l13.54 1.96z"/>
	<path id="&lt;Path&gt;" class="s3" d="m741.81 603.74l-11.48 8.51 5.74 5.99h12.5l11.48-7.25z"/>
	<path id="&lt;Path&gt;" class="s3" d="m672.23 476.03l-11.48 8.51 5.74 5.99h12.49l11.48-7.25z"/>
	<path id="&lt;Path&gt;" class="s3" d="m602.67 663.85l-11.48 8.51 5.74 5.98h12.5l11.48-7.24z"/>
	<path id="&lt;Path&gt;" class="s3" d="m385.89 532.48l-11.48 8.51 5.74 5.98h12.49l11.49-7.24z"/>
	<path id="&lt;Path&gt;" class="s3" d="m762.08 662.94l-11.49 8.51 5.75 5.98h12.49l11.48-7.25z"/>
	<path id="&lt;Path&gt;" class="s3" d="m446 642.52l-12.83 14.5 10.13 3.13h11.48v-8.81z"/>
	<path id="&lt;Path&gt;" class="s3" d="m329.42 614.45l-12.83 14.5 10.13 3.13h11.48v-8.81z"/>
	<path id="&lt;Path&gt;" class="s3" d="m548.66 528l-12.84 14.49 10.13 3.14h11.49v-8.82z"/>
	<path id="&lt;Path&gt;" class="s3" d="m284.29 665.85l-11.48 3.6v10.89h17.56l6.07-5.68z"/>
	<path id="&lt;Path&gt;" class="s3" d="m605.11 603.74l-11.49 3.6v10.9h17.56l6.08-5.68z"/>
	<path id="&lt;Path&gt;" class="s3" d="m495.97 525.23l-11.48 3.6v10.9h17.56l6.08-5.68z"/>
	<path id="&lt;Path&gt;" class="s3" d="m438.23 468.78l-11.48 3.61v10.89h17.56l6.08-5.68z"/>
	<path id="&lt;Path&gt;" class="s3" d="m730.33 639.11l-16.21 10.89 13.61 3.14z"/>
	<path id="&lt;Path&gt;" class="s3" d="m680.49 531.6l-16.21 10.89 13.6 3.14z"/>
	<path id="&lt;Path&gt;" class="s3" d="m534.8 666.84l-5.73 8.51h20.94z"/>
	<path id="&lt;Path&gt;" class="s3" d="m656.01 663.82l-5.73 8.51h20.93z"/>
	<path id="&lt;Path&gt;" class="s3" d="m589.97 533.1l-5.73 8.51h20.94z"/>
	<path id="&lt;Path&gt;" class="s3" d="m355.62 662.02l-7.34 10.65 7.34 1.46h13.86l-4.08-9.54z"/>
	<path id="&lt;Path&gt;" class="s3" d="m485.79 469.45l-5.02 7.28 5.02 1h9.47l-2.79-6.52z"/>
	<path id="&lt;Path&gt;" class="s3" d="m444.94 537.97l-5.02 7.28 5.02 1h9.47l-2.78-6.52z"/>
	<path id="&lt;Path&gt;" class="s3" d="m346.7 475l-5.02 7.28 5.02 1h9.47l-2.78-6.52z"/>
	<path id="&lt;Path&gt;" class="s4" d="m263.83 640.39c7.74-0.05 7.82 11.41 15.56 11.35 7.74-0.05 7.66-11.5 15.39-11.56 7.74-0.05 7.82 11.4 15.55 11.35 7.74-0.05 7.66-11.51 15.4-11.56 7.75-0.05 7.82 11.4 15.57 11.35 7.74-0.05 7.66-11.51 15.4-11.56 7.73-0.05 7.81 11.4 15.55 11.35 7.74-0.06 7.66-11.51 15.4-11.56 7.75-0.06 7.82 11.4 15.57 11.35 7.74-0.06 7.66-11.51 15.4-11.56 7.74-0.06 7.82 11.4 15.56 11.34 7.74-0.05 7.66-11.5 15.41-11.56 7.74-0.05 7.81 11.4 15.56 11.35 7.74-0.05 7.66-11.5 15.41-11.56 7.72-0.05 7.8 11.4 15.53 11.35 7.74-0.05 7.66-11.51 15.4-11.56 7.74-0.05 7.82 11.4 15.56 11.35 7.73-0.05 7.65-11.51 15.38-11.56 7.74-0.05 7.82 11.4 15.55 11.35 7.75-0.06 7.67-11.51 15.42-11.56 7.74-0.06 7.81 11.4 15.55 11.35 7.75-0.06 7.67-11.51 15.42-11.56 7.74-0.06 7.82 11.4 15.56 11.34 7.75-0.05 7.67-11.5 15.42-11.56 7.74-0.05 7.82 11.4 15.57 11.35 7.74-0.05 7.67-11.5 15.42-11.56 7.75-0.05 7.83 11.4 15.58 11.35 7.75-0.05 7.67-11.51 15.42-11.56 7.75-0.05 7.82 11.4 15.57 11.35 7.75-0.06 7.67-11.51 15.42-11.56 7.75-0.05 7.83 11.4 15.59 11.35 7.75-0.06 7.67-11.51 15.43-11.56 7.76-0.06 7.84 11.4 15.61 11.34 7.77-0.05 7.69-11.5 15.46-11.56"/>
	<path id="&lt;Path&gt;" class="s4" d="m328.44 501.31c5.99 0.01 5.98 11.46 11.97 11.47 5.98 0 5.99-11.45 11.98-11.45 5.98 0.01 5.97 11.46 11.96 11.47 5.98 0 5.99-11.45 11.98-11.45 5.99 0.01 5.98 11.46 11.97 11.47 5.99 0 6-11.45 11.99-11.45 5.98 0.01 5.97 11.46 11.96 11.47 5.99 0 6-11.45 11.99-11.45 5.99 0.01 5.98 11.46 11.97 11.47 5.97 0 5.98-11.45 11.96-11.45 5.98 0.01 5.97 11.46 11.95 11.47 5.99 0 6-11.45 11.99-11.45 5.99 0.01 5.98 11.46 11.96 11.47 5.97 0 5.98-11.45 11.96-11.45 5.98 0.01 5.97 11.46 11.95 11.47 5.99 0 6-11.45 11.99-11.45 5.99 0.01 5.98 11.46 11.97 11.47 5.99 0 5.99-11.45 11.98-11.45 5.99 0.01 5.98 11.46 11.96 11.47 6 0 6.01-11.45 12-11.45 5.99 0.01 5.98 11.46 11.97 11.47 6 0 6-11.45 12-11.45 5.99 0.01 5.98 11.46 11.97 11.47 6 0 6.01-11.45 12.01-11.45 5.99 0.01 5.98 11.46 11.98 11.47 5.99 0 6-11.45 12-11.45 6 0.01 5.99 11.46 11.98 11.46 5.99 0.01 6-11.44 11.99-11.44 5.99 0.01 5.98 11.46 11.98 11.46 6 0.01 6.01-11.44 12.01-11.44 6 0.01 5.99 11.46 11.99 11.46 6.01 0.01 6.02-11.44 12.02-11.44 6.02 0.01 6.01 11.46 12.02 11.46 6.01 0.01 6.02-11.44 12.04-11.44"/>
	<path id="&lt;Path&gt;" class="s5" d="m252.16 551.93c0 0-16.61 61.13 0 71.34 16.61 10.2 90.51-28.78 90.51-28.78 0 0 0 34.05 48.62 38.91 48.63 4.86 77-40.73 77-40.73 0 0-2.71 56.54 18.91 63.83 21.61 7.3 41.87-65.66 41.87-65.66 0 0 14.86 41.35 28.37 42.56 13.5 1.22 40.52-44.99 40.52-44.99 0 0 39.17 51.07 74.29 54.72 35.12 3.65 74.29-55.93 74.29-55.93 0 0 14.86 46.2 43.23 47.42 28.36 1.21 29.71-82.69 29.71-82.69z"/>
	<path id="&lt;Path&gt;" class="s5" d="m752.4 410.89c0 0 16.2 62.41-20.72 69.71-36.92 7.29-62.13-41.34-62.13-41.34 0 0-4.5 45.39-31.52 46.2-27.01 0.81-54.03-46.2-54.03-46.2 0 0-19.81 69.71-41.42 68.09-21.61-1.62-21.61-72.96-21.61-72.96 0 0-18.91 25.16-67.54 24.74-48.63-0.42-53.13-29.6-53.13-29.6 0 0 1.8 59.58-19.81 61-21.62 1.42-29.72-52.89-29.72-52.89 0 0-10.24 41.06-26.73 41.6-16.49 0.55-8.39-71.6-8.39-71.6z"/>
	<path id="&lt;Path&gt;" class="s6" d="m441.85 504.99c0 0-27.05-21.29-20.91-27.31 6.63-6.5 29.07 23.17 29.07 23.17 0 0-3.45-35.26 5.34-34.8 10.14 0.52 1.97 40.55 1.97 40.55 0 0 21.46-30.87 28.77-24.81 6.8 5.62-17.65 30.56-17.65 30.56 0 0 29.53-11.35 31.61-3.67 2.02 7.49-28.44 12.44-28.44 12.44z"/>
	<path id="&lt;Path&gt;" class="s7" d="m413.8 590.35c-7.23-4.01-4.91-22.61-4.12-42.49 0.5-12.53-5.62-30.6 2.71-39.49 21.55-22.98 67.33-5.86 70.99 14.69 4.1 23.1-50.52 77.85-69.58 67.29z"/>
	<path id="&lt;Path&gt;" class="s8" d="m420.32 522.52l-2.35 7.34"/>
	<path id="&lt;Path&gt;" class="s8" d="m434.46 510.33l-2.36 7.34"/>
	<path id="&lt;Path&gt;" class="s8" d="m452.95 517.86l-2.36 7.33"/>
	<path id="&lt;Path&gt;" class="s8" d="m429.86 537.77l-2.36 7.34"/>
	<path id="&lt;Path&gt;" class="s8" d="m446.93 547.18l-2.35 7.34"/>
	<path id="&lt;Path&gt;" class="s6" d="m555.97 514.7c0 0-6.58-33.77 2-34.32 9.27-0.6 6.88 36.52 6.88 36.52 0 0 20.42-28.95 26.78-22.86 7.33 7.02-25 32-25 32 0 0 36.41-9.37 38 0 1.47 8.69-33.33 11.61-33.33 11.61 0 0 29.77 10.69 26.33 17.86-3.36 7-29.66-9.14-29.66-9.14z"/>
	<path id="&lt;Path&gt;" class="s6" d="m480.3 565.65c0 0-11.12-23.18-5.78-42.07 5.33-18.9 35.99-35.56 35.99-35.56 0 0-0.55 23.06-3.33 41.77-2.78 18.71-26.88 35.86-26.88 35.86z"/>
	<path id="&lt;Path&gt;" class="s7" d="m478.98 561.03c-2.86-7.77 11.05-20.33 24.63-34.86 8.57-9.17 15.73-26.85 27.85-28.14 31.32-3.33 54.81 39.54 44.16 57.48-11.99 20.18-89.11 25.96-96.64 5.52z"/>
	<path id="&lt;Path&gt;" class="s8" d="m528.22 513.93l-6.58 4.01"/>
	<path id="&lt;Path&gt;" class="s8" d="m546.88 513.93l-6.57 4.01"/>
	<path id="&lt;Path&gt;" class="s8" d="m555.97 531.7l-6.57 4.02"/>
	<path id="&lt;Path&gt;" class="s8" d="m525.48 531.7l-6.58 4.02"/>
	<path id="&lt;Path&gt;" class="s8" d="m503.31 538.88l-6.58 4.02"/>
	<path id="&lt;Path&gt;" class="s8" d="m507.66 551.35l-6.57 4.02"/>
	<path id="&lt;Path&gt;" class="s8" d="m532.26 549.98l-6.57 4.01"/>
	<path id="&lt;Path&gt;" class="s8" d="m550.17 556l-6.57 4.02"/>
	<path id="&lt;Path&gt;" class="s6" d="m314.46 501.54c0 0 15.08-37.65 5.27-40.18-10.6-2.74-16.04 40.76-16.04 40.76 0 0-17.25-38.02-25.95-32.38-10.04 6.51 21.87 42.57 21.87 42.57 0 0-40.09-18.89-43.99-8.4-3.63 9.75 36.02 20.82 36.02 20.82 0 0-36.83 5.79-34.43 14.86 2.34 8.84 36.36-4.04 36.36-4.04z"/>
	<path id="&lt;Path&gt;" class="s6" d="m373.7 570.65c0 0 22.1-13.14 28.13-31.82 6.03-18.68-10.26-49.55-10.26-49.55 0 0-12.32 19.51-20.37 36.62-8.05 17.12 2.5 44.75 2.5 44.75z"/>
	<path id="&lt;Path&gt;" class="s7" d="m393.36 572.19c5.03-8.36-8.3-25.97-20.81-45.8-7.89-12.51-12.28-34.56-26.02-38.73-35.54-10.78-72.2 33.67-63.83 56.79 9.41 26.02 97.42 49.75 110.66 27.74z"/>
	<path id="&lt;Path&gt;" class="s8" d="m346.76 506.78l6.73 6.1"/>
	<path id="&lt;Path&gt;" class="s8" d="m325.15 502.65l6.73 6.11"/>
	<path id="&lt;Path&gt;" class="s8" d="m310.7 521.22l6.73 6.11"/>
	<path id="&lt;Path&gt;" class="s8" d="m346.01 527.96l6.72 6.11"/>
	<path id="&lt;Path&gt;" class="s8" d="m372.57 544.82l6.72 6.1"/>
	<path id="&lt;Path&gt;" class="s8" d="m364.77 558.3l6.73 6.1"/>
	<path id="&lt;Path&gt;" class="s8" d="m334.12 547.62l6.72 6.11"/>
	<path id="&lt;Path&gt;" class="s8" d="m312.05 550.64l6.72 6.11"/>
	<path id="&lt;Path&gt;" class="s9" d="m461.21 588.28c-14.44 0-26.11-11.67-26.11-26.11 0-14.44 11.67-26.11 26.11-26.11 14.44 0 26.11 11.67 26.11 26.11 0 14.44-11.67 26.11-26.11 26.11z"/>
	<path id="&lt;Path&gt;" class="s10" d="m455.04 543.92l-9.55-7.86 3.37 13.2-7.86 10.1 20.21-3.65 5.9 9.55v-12.07l11.23-0.85-13.2-5.79 5.9-12.17z"/>
	<path id="&lt;Path&gt;" class="s9" d="m402.69 561.33c-14.44 0-26.11-11.67-26.11-26.11 0-14.44 11.67-26.11 26.11-26.11 14.44 0 26.11 11.67 26.11 26.11 0 14.44-11.67 26.11-26.11 26.11z"/>
	<path id="&lt;Path&gt;" class="s10" d="m393.83 517.89l-5.81-4.79 2.05 8.04-4.79 6.15 12.31-2.22 3.59 5.81v-7.35l6.84-0.51-8.04-3.53 3.59-7.41z"/>
	<path id="&lt;Path&gt;" class="s10" d="m411.07 585.37c-12.32 0-22.29-9.96-22.29-22.29 0-12.32 9.97-22.28 22.29-22.28 12.32 0 22.28 9.96 22.28 22.28 0 12.33-9.96 22.29-22.28 22.29z"/>
	<path id="&lt;Path&gt;" class="s9" d="m407.5 567.01l3.5 6.31 0.99-7.88 6.43-3.81-11.75-2.34-1.16-6.44-2.58 6.55-6.28-1.95 5.92 5.97-5.8 5.35z"/>
	<path id="&lt;Path&gt;" class="s6" d="m541.56 345.71c0 0-27.04-21.28-20.9-27.3 6.63-6.51 29.06 23.16 29.06 23.16 0 0-3.44-35.26 5.35-34.8 10.14 0.53 1.97 40.55 1.97 40.55 0 0 21.45-30.87 28.77-24.81 6.8 5.62-17.65 30.56-17.65 30.56 0 0 29.53-11.35 31.6-3.67 2.03 7.49-28.43 12.45-28.43 12.45z"/>
	<path id="&lt;Path&gt;" class="s7" d="m513.52 431.07c-7.24-4.01-4.91-22.61-4.12-42.48 0.5-12.54-5.62-30.61 2.71-39.5 21.55-22.98 67.33-5.86 70.98 14.69 4.11 23.1-50.51 77.85-69.57 67.29z"/>
	<path id="&lt;Path&gt;" class="s8" d="m520.04 363.24l-2.36 7.34"/>
	<path id="&lt;Path&gt;" class="s8" d="m534.17 351.05l-2.35 7.34"/>
	<path id="&lt;Path&gt;" class="s8" d="m552.66 358.58l-2.35 7.33"/>
	<path id="&lt;Path&gt;" class="s8" d="m529.57 378.49l-2.35 7.34"/>
	<path id="&lt;Path&gt;" class="s8" d="m546.65 387.9l-2.36 7.34"/>
	<path id="&lt;Path&gt;" class="s6" d="m655.69 355.43c0 0-6.58-33.78 2-34.33 9.27-0.6 6.88 36.52 6.88 36.52 0 0 20.42-28.95 26.78-22.86 7.33 7.02-25 32-25 32 0 0 36.41-9.37 37.99 0 1.48 8.7-33.32 11.61-33.32 11.61 0 0 29.77 10.69 26.33 17.86-3.36 7-29.67-9.14-29.67-9.14z"/>
	<path id="&lt;Path&gt;" class="s6" d="m580.01 406.38c0 0-11.11-23.19-5.78-42.08 5.33-18.9 36-35.56 36-35.56 0 0-0.56 23.07-3.34 41.77-2.78 18.71-26.88 35.87-26.88 35.87z"/>
	<path id="&lt;Path&gt;" class="s7" d="m578.7 401.75c-2.86-7.76 11.04-20.33 24.63-34.86 8.56-9.17 15.72-26.85 27.84-28.14 31.33-3.33 54.81 39.54 44.16 57.48-11.98 20.19-89.1 25.96-96.63 5.52z"/>
	<path id="&lt;Path&gt;" class="s8" d="m627.93 354.65l-6.57 4.02"/>
	<path id="&lt;Path&gt;" class="s8" d="m646.6 354.65l-6.58 4.02"/>
	<path id="&lt;Path&gt;" class="s8" d="m655.69 372.42l-6.58 4.02"/>
	<path id="&lt;Path&gt;" class="s8" d="m625.19 372.42l-6.57 4.02"/>
	<path id="&lt;Path&gt;" class="s8" d="m603.03 379.6l-6.58 4.02"/>
	<path id="&lt;Path&gt;" class="s8" d="m607.38 392.07l-6.58 4.02"/>
	<path id="&lt;Path&gt;" class="s8" d="m631.98 390.7l-6.58 4.01"/>
	<path id="&lt;Path&gt;" class="s8" d="m649.89 396.73l-6.58 4.01"/>
	<path id="&lt;Path&gt;" class="s6" d="m414.18 342.27c0 0 15.08-37.66 5.27-40.19-10.61-2.74-16.05 40.77-16.05 40.77 0 0-17.24-38.03-25.95-32.39-10.04 6.51 21.87 42.57 21.87 42.57 0 0-40.08-18.89-43.98-8.4-3.63 9.75 36.02 20.82 36.02 20.82 0 0-36.84 5.8-34.43 14.86 2.34 8.84 36.36-4.04 36.36-4.04z"/>
	<path id="&lt;Path&gt;" class="s6" d="m473.42 411.38c0 0 22.09-13.14 28.13-31.83 6.03-18.68-10.26-49.54-10.26-49.54 0 0-12.32 19.5-20.38 36.62-8.05 17.11 2.51 44.75 2.51 44.75z"/>
	<path id="&lt;Path&gt;" class="s7" d="m493.08 412.91c5.03-8.36-8.3-25.97-20.81-45.8-7.9-12.51-12.28-34.56-26.03-38.73-35.53-10.78-72.19 33.67-63.83 56.79 9.41 26.02 97.43 49.75 110.67 27.74z"/>
	<path id="&lt;Path&gt;" class="s8" d="m446.48 347.5l6.73 6.1"/>
	<path id="&lt;Path&gt;" class="s8" d="m424.87 343.37l6.72 6.11"/>
	<path id="&lt;Path&gt;" class="s8" d="m410.42 361.95l6.73 6.1"/>
	<path id="&lt;Path&gt;" class="s8" d="m445.72 368.68l6.73 6.11"/>
	<path id="&lt;Path&gt;" class="s8" d="m472.28 385.54l6.73 6.11"/>
	<path id="&lt;Path&gt;" class="s8" d="m464.49 399.02l6.72 6.1"/>
	<path id="&lt;Path&gt;" class="s8" d="m433.83 388.34l6.73 6.11"/>
	<path id="&lt;Path&gt;" class="s8" d="m411.76 391.37l6.73 6.1"/>
	<path id="&lt;Path&gt;" class="s9" d="m560.93 429c-14.44 0-26.11-11.67-26.11-26.11 0-14.44 11.67-26.11 26.11-26.11 14.44 0 26.11 11.67 26.11 26.11 0 14.44-11.67 26.11-26.11 26.11z"/>
	<path id="&lt;Path&gt;" class="s10" d="m554.75 384.64l-9.54-7.86 3.37 13.2-7.86 10.1 20.21-3.65 5.89 9.55v-12.07l11.23-0.84-13.19-5.8 5.89-12.17z"/>
	<path id="&lt;Path&gt;" class="s9" d="m502.4 402.05c-14.43 0-26.1-11.67-26.1-26.11 0-14.44 11.67-26.11 26.1-26.11 14.44 0 26.11 11.67 26.11 26.11 0 14.44-11.67 26.11-26.11 26.11z"/>
	<path id="&lt;Path&gt;" class="s10" d="m493.55 358.61l-5.82-4.79 2.05 8.04-4.78 6.16 12.31-2.23 3.59 5.82v-7.36l6.84-0.51-8.04-3.53 3.59-7.41z"/>
	<path id="&lt;Path&gt;" class="s10" d="m510.78 426.09c-12.32 0-22.28-9.96-22.28-22.28 0-12.33 9.96-22.29 22.28-22.29 12.33 0 22.29 9.96 22.29 22.29 0 12.32-9.96 22.28-22.29 22.28z"/>
	<path id="&lt;Path&gt;" class="s9" d="m507.21 407.73l3.51 6.31 0.99-7.88 6.43-3.81-11.76-2.34-1.15-6.44-2.59 6.55-6.27-1.94 5.92 5.97-5.8 5.34z"/>
	<path id="&lt;Path&gt;" class="s6" d="m680.94 515.77c0 0-14.38-22.31-8.39-25.16 6.47-3.08 15.38 24.19 15.38 24.19 0 0 6.34-26.58 12.64-24.04 7.26 2.93-8.75 30.07-8.75 30.07 0 0 23.4-17.12 27.21-10.87 3.55 5.81-20.54 17.86-20.54 17.86 0 0 24.38-0.86 23.97 5.26-0.4 5.97-23.87 1.93-23.87 1.93z"/>
	<path id="&lt;Path&gt;" class="s7" d="m639.06 570.99c-4.28-4.75 2.09-17.73 7.66-32.02 3.51-9.02 3.58-23.73 11.89-28.13 21.48-11.35 50.57 12.64 48.08 28.54-2.8 17.88-56.39 44.09-67.63 31.61z"/>
	<path id="&lt;Path&gt;" class="s8" d="m660.84 523.16l-3.56 4.76"/>
	<path id="&lt;Path&gt;" class="s8" d="m674.21 517.81l-3.56 4.76"/>
	<path id="&lt;Path&gt;" class="s8" d="m685.8 527.94l-3.55 4.76"/>
	<path id="&lt;Path&gt;" class="s8" d="m663.96 536.67l-3.55 4.76"/>
	<path id="&lt;Path&gt;" class="s8" d="m674.05 547.82l-3.56 4.76"/>
	<path id="&lt;Path&gt;" class="s6" d="m786.69 516.24c0 0-6.58-33.78 2-34.33 9.27-0.59 6.88 36.53 6.88 36.53 0 0 20.42-28.95 26.78-22.86 7.33 7.02-25 31.99-25 31.99 0 0 36.41-9.36 37.99 0 1.48 8.7-33.32 11.62-33.32 11.62 0 0 29.77 10.69 26.33 17.86-3.36 6.99-29.67-9.15-29.67-9.15z"/>
	<path id="&lt;Path&gt;" class="s6" d="m688.24 569.33c0 0 3.49-25.47 18.35-38.3 14.86-12.83 49.63-9.84 49.63-9.84 0 0-13.17 18.94-25.79 33.02-12.63 14.08-42.19 15.12-42.19 15.12z"/>
	<path id="&lt;Path&gt;" class="s7" d="m709.7 562.57c-2.86-7.77 11.04-20.33 24.63-34.87 8.56-9.16 15.72-26.84 27.84-28.13 31.33-3.34 54.81 39.54 44.16 57.48-11.98 20.18-89.1 25.96-96.63 5.52z"/>
	<path id="&lt;Path&gt;" class="s8" d="m758.93 515.46l-6.57 4.02"/>
	<path id="&lt;Path&gt;" class="s8" d="m777.6 515.46l-6.58 4.02"/>
	<path id="&lt;Path&gt;" class="s8" d="m786.69 533.24l-6.58 4.01"/>
	<path id="&lt;Path&gt;" class="s8" d="m756.19 533.24l-6.57 4.01"/>
	<path id="&lt;Path&gt;" class="s8" d="m734.03 540.42l-6.58 4.01"/>
	<path id="&lt;Path&gt;" class="s8" d="m738.38 552.89l-6.58 4.01"/>
	<path id="&lt;Path&gt;" class="s8" d="m762.98 551.51l-6.58 4.02"/>
	<path id="&lt;Path&gt;" class="s8" d="m780.89 557.54l-6.58 4.02"/>
	<path id="&lt;Path&gt;" class="s6" d="m592.56 557.28c0 0 25.67 1.3 41.04-10.92 15.37-12.22 18.9-46.94 18.9-46.94 0 0-21.07 9.42-37.25 19.21-16.18 9.79-22.69 38.65-22.69 38.65z"/>
	<path id="&lt;Path&gt;" class="s9" d="m637.69 578.19c-10.83 0-19.59-8.76-19.59-19.59 0-10.83 8.76-19.59 19.59-19.59 10.83 0 19.59 8.76 19.59 19.59 0 10.83-8.76 19.59-19.59 19.59z"/>
	<path id="&lt;Path&gt;" class="s10" d="m633.06 544.91l-7.16-5.9 2.52 9.9-5.89 7.58 15.16-2.74 4.43 7.17v-9.06l8.42-0.63-9.9-4.35 4.42-9.13z"/>
	<path id="&lt;Path&gt;" class="s9" d="m593.78 557.97c-10.83 0-19.59-8.76-19.59-19.59 0-10.83 8.76-19.59 19.59-19.59 10.83 0 19.59 8.76 19.59 19.59 0 10.83-8.76 19.59-19.59 19.59z"/>
	<path id="&lt;Path&gt;" class="s10" d="m587.13 525.38l-4.36-3.59 1.54 6.02-3.59 4.62 9.24-1.67 2.69 4.37v-5.52l5.13-0.38-6.03-2.65 2.7-5.56z"/>
	<path id="&lt;Path&gt;" class="s10" d="m600.07 576.01c-9.25 0-16.72-7.48-16.72-16.72 0-9.25 7.47-16.72 16.72-16.72 9.24 0 16.72 7.47 16.72 16.72 0 9.24-7.48 16.72-16.72 16.72z"/>
	<path id="&lt;Path&gt;" class="s9" d="m597.39 562.23l2.63 4.74 0.74-5.92 4.83-2.85-8.82-1.76-0.87-4.84-1.94 4.92-4.71-1.46 4.45 4.48-4.36 4.01z"/>
	<path id="ಜನ್ಮದಿನದ  ಶುಭಾಶಯಗಳು" class="s7" aria-label="ಜನ್ಮದಿನದ 
ಶುಭಾಶಯಗಳು"  d="m350.3 773.8h0.9q-1.8 5.9-5 10.4-3 4.4-7.5 6.9-4.4 2.4-10.5 2.4-7.9 0-13.1-4.6-5.2-4.8-5.2-12.6 0-6.4 3.3-11.4 3.5-5 7.7-9.4 3.5-3.6 5.8-6.6 2.5-3.1 2.5-6.3 0-2.3-1.7-3.9-1.5-1.7-5.2-1.7-3.5 0-5.4 1.6-1.8 1.3-1.8 3.7 0 1.2 0.3 2.3 0.4 0.9 0.9 1.7l-5.3 3q-2.2-2.4-3.9-5.5-1.5-3.3-1.5-7.4 0-6.5 4.6-11.1 4.6-4.9 13.3-4.9 5 0 8.7 1.8 3.9 1.5 7.1 3.9 3.2 2.3 6.4 4.8 3.3 2.3 7.3 3.9 3.9 1.6 9 1.6 3.5 0 5.5-1.1 2.2-1.1 2.2-3.1 0-2.3-2.7-3.3-2.5-1.2-6.2-1.5 0.1-3.1 1.9-5 1.7-2 5.1-2 3.5 0 5.9 2.1 2.5 2.1 3.7 5.6 1.4 3.3 1.4 7.2 0 6.5-3.7 10.8-3.5 4.1-10.6 4.1-7.4 0-14.3-4.9-6.7-5-12.4-12.4l2.7-2.1q0.6 1.1 0.8 2.4 0.3 1.4 0.3 2.9 0 3.2-0.9 5.8-0.9 2.6-2.5 5-1.6 2.3-3.6 4.6-2.4 2.6-4.9 5.2-2.3 2.3-4 4.7-1.4 2.3-1.4 4.8 0 3.1 2.3 5 2.4 1.7 6.9 1.7 2.6 0 4.7-0.5 2.3-0.8 3.9-1.9 1.9-1.3 3.3-3 1.4-1.8 2.3-4h6.1q1.1 2.8 2.9 5 1.9 2.1 4.8 3.4 3 1 7.2 1 5.9 0 8.9-2 3-2.2 3-5.6 0-3-2.5-4.9-2.3-2-6.5-3 1-3.5 2.9-5.3 2-2 4.9-2 3.4 0 5.5 2.7 2.2 2.6 3.1 7.1 1.1 4.4 1.1 9.9 0 4.5-1 8.9-0.9 4.1-3.1 7.6-1.9 3.3-5.4 5.3-3.4 1.9-8.4 1.9-5.8 0-10-2.5-4.2-2.7-6.9-7.1-2.5-4.5-4-10.1zm65.6 25.5q-3.4 0-6.6-3.1-3.1-3.2-5.1-8.8-1.9-5.6-1.9-13.1 0-11.1 5-17.5 5-6.4 12.9-6.4 4.1 0 7 1.6 3 1.4 5.6 4.2 2.7 2.7 5.4 6.5 2.3 3.2 4.4 5.6 2.3 2.2 4.9 3.4 2.7 1.2 6.1 1.2 3.4 0 5.7-1.2 2.3-1.3 3.4-3.6 1.3-2.4 1.3-5.6 0-4.9-2.1-9-2.1-4.3-6-7.4-3.9-3.2-9.3-4.9-5.4-1.9-12.1-1.9l4-5.8q9.1 0 15.8 3.2 6.9 3.2 11.4 8.7 4.7 5.2 7 11.9 2.4 6.5 2.4 13.1 0 3.4-0.9 7.4-0.7 4-2.8 7.6-1.9 3.6-5.6 5.9-3.3 2.2-8.7 2.2-4 0-7.3-1.3-3.1-1.3-5.9-3.8-2.7-2.7-5.5-6.7-2.7-3.7-5.2-6.2-2.6-2.8-5.5-4.1-2.9-1.5-6.9-1.5-4.4 0-7.3 2.1-2.7 1.9-2.7 5.7 0 3.8 3 6.5 2.9 2.6 9 3.9 0 3.2-0.7 5.8-0.7 2.5-2.2 3.9-1.4 1.5-4 1.5zm32.6-60h-45.9l1.2-17.4h46.3q4.4 0 7.4-0.7 3.2-0.9 5.1-2.7 2.1-2 2.1-5.9 0-3.6-1.6-6.6-1.6-3.1-4.7-6.7l6.3-4.6q5.1 5.6 7.7 11.7 2.7 6 2.7 12 0 5.2-1.7 9.1-1.5 3.9-4.7 6.5-2.2 1.8-5.2 3.1-2.8 1.1-6.6 1.7-3.7 0.5-8.4 0.5zm37.4 103.7q-6.8 0-12.4-2.5-5.6-2.6-9-7.4-3.2-4.8-3.2-11.5 0-6.4 3.1-11.1 3.2-4.8 8.7-7.4 5.6-2.7 12.5-2.7 7.9 0 12.6 3.3 4.7 3.3 4.7 9 0 5.4-4.1 8.5-3.9 3.1-10.2 3.1-7.1 0-10.5-3-3.4-3-3.4-7.8 0-2.7 1.2-4.8 1.3-2.3 3.2-4.1 1.9-2 3.7-3.7 1.8-1.8 3-3.6 1.4-1.9 1.4-4.1 0-2.4-1.4-3.9-1.3-1.7-3.9-3l1.3-3.3q5.9 0.9 8.9 3.2 3.2 2.1 3.2 5.8 0 2.8-1.5 5-1.3 1.9-3.4 3.7-2 1.7-4.1 3.2-2 1.5-3.5 3-1.3 1.6-1.3 3.4 0 2 1.9 3 2 0.9 5 0.9 2.8 0 4.6-0.8 1.8-0.9 1.8-2.7 0-1.8-2.2-2.7-2-1.1-6.7-1.1-7.4 0-12.2 3-4.7 2.9-4.7 8.1 0 5.2 4.6 8.1 4.7 2.6 13.1 2.6 7.8 0 13.1-2.1 5.5-2.3 10.9-6.5l3 2.2q-2.2 5.9-5.9 10.6-3.7 4.6-9.2 7.4-5.3 2.7-12.7 2.7zm34.5-49.5q-7.3 0-12.1-3.4-4.6-3.4-6.8-8.9-2.2-5.5-2.2-11.9 0-7.7 2.9-14.5 3.1-6.9 8.6-11.9 5.5-5.2 13-7.7l6.3 2.4q-1.5 0.9-3.7 1.7-2 0.6-4.7 0.6-5.4 0-9.9-2-4.5-2-7.1-5.7-2.6-3.7-2.6-8.8 0-8.9 7.1-13.8 7.1-5.1 18.5-5.1 10.9 0 19.4 3.7 8.5 3.6 14.8 9.8 6.2 6.1 10.3 14 4.2 7.8 6.2 16.4 2.1 8.4 2.1 16.5 0 5.1-1.1 10.2-1.1 5-3.6 9.2-2.5 4.2-6.6 6.7-4 2.5-9.9 2.5-5.8 0-10-2.5-4-2.7-6.5-7.2-2.4-4.6-3.4-10.5h0.9q-0.9 5.8-3.4 10.5-2.5 4.5-6.7 7.1-4.1 2.6-9.8 2.6zm3.7-20.6q3.5 0 5.8-1 2.5-1.1 4.1-3.1 1.7-2.2 2.8-5.2h6.1q1.2 3.1 2.8 5.2 1.6 2 4 3.1 2.5 1 5.9 1 3.8 0 6.3-1.5 2.5-1.6 3.7-4.3 1.4-2.8 1.4-6.6 0-6.3-3.5-11.1-3.4-4.9-9.6-7.6-6-2.9-14.1-2.9-8.1 0-14.2 2.9-6.1 2.8-9.6 7.8-3.3 4.8-3.3 10.9 0 3.8 1.3 6.6 1.4 2.8 3.9 4.4 2.6 1.4 6.2 1.4zm49.8-21.6h-3.4q-1.5-5.4-3.7-10.5-2.1-5.3-5.3-9.7-3-4.6-7.2-8-4.1-3.4-9.3-5.2-5.3-2-11.9-2-6.3 0-10.1 2.4-3.8 2.2-3.8 6.8 0 3.7 2.9 5.9 2.9 1.9 7.4 1.9 2.5 0 4.9-0.2 2.5-0.3 5.4-0.3 13 0 21.2 5 8.3 4.9 12.9 13.9zm32 48q-3.4 0-6.6-3.1-3.1-3.2-5.1-8.8-1.9-5.6-1.9-13.1 0-11.1 5-17.5 5-6.4 12.9-6.4 4.1 0 7 1.6 3 1.4 5.6 4.2 2.7 2.7 5.4 6.5 2.3 3.2 4.4 5.6 2.3 2.2 4.9 3.4 2.7 1.2 6.1 1.2 3.4 0 5.7-1.2 2.3-1.3 3.4-3.6 1.3-2.4 1.3-5.6 0-4.9-2.1-9-2.1-4.3-6-7.4-3.9-3.2-9.3-4.9-5.4-1.9-12.1-1.9l4-5.8q9.1 0 15.8 3.2 6.9 3.2 11.4 8.7 4.7 5.2 7 11.9 2.4 6.5 2.4 13.1 0 3.4-0.9 7.4-0.7 4-2.8 7.6-1.9 3.6-5.6 5.9-3.3 2.2-8.7 2.2-4 0-7.3-1.3-3.1-1.3-5.9-3.8-2.7-2.7-5.5-6.7-2.7-3.7-5.2-6.2-2.6-2.8-5.5-4.1-2.9-1.5-6.9-1.5-4.4 0-7.3 2.1-2.7 1.9-2.7 5.7 0 3.8 3 6.5 2.9 2.6 9 3.9 0 3.2-0.7 5.8-0.7 2.5-2.2 3.9-1.4 1.5-4 1.5zm32.6-60h-45.9l1.2-17.4h46.3q4.4 0 7.4-0.7 3.2-0.9 5.1-2.7 2.1-2 2.1-5.9 0-3.6-1.6-6.6-1.6-3.1-4.7-6.7l6.3-4.6q5.1 5.6 7.7 11.7 2.7 6 2.7 12 0 5.2-1.7 9.1-1.5 3.9-4.7 6.5-2.2 1.8-5.2 3.1-2.8 1.1-6.6 1.7-3.7 0.5-8.4 0.5zm60.9 54.2q-7.3 0-12.1-3.4-4.6-3.4-6.8-8.9-2.2-5.5-2.2-11.9 0-7 2.4-13.1 2.5-6.3 7-10.9 4.6-4.8 10.9-7.4l0.1 1.4h-19.7l1.2-17.4h54.3q4.4 0 7.5-0.7 3.1-0.9 5-2.7 2.1-2 2.1-5.9 0-3.6-1.7-6.6-1.5-3.1-4.6-6.7l6.3-4.6q5.1 5.6 7.7 11.7 2.7 6 2.7 12 0 5.2-1.7 9.1-1.5 3.9-4.7 6.5-2.2 1.8-5.2 3.1-2.8 1.1-6.7 1.7-3.6 0.5-8.3 0.5h-1.5l7.8-1.4q6.3 2.5 10.9 7.4 4.5 4.6 6.9 10.9 2.5 6.1 2.5 13.1 0 4.1-1.1 8.4-1 4.3-3.6 8-2.4 3.5-6.5 5.7-4.1 2.1-10 2.1-5.8 0-10-2.5-4-2.7-6.5-7.2-2.4-4.6-3.4-10.5h0.9q-0.9 5.8-3.4 10.5-2.5 4.5-6.7 7.1-4.1 2.6-9.8 2.6zm3.7-20.6q3.5 0 5.8-1 2.5-1.1 4.1-3.1 1.7-2.2 2.8-5.2h6.1q1.2 3.1 2.8 5.2 1.6 2 4 3.1 2.5 1 5.9 1 3.8 0 6.3-1.4 2.5-1.5 3.7-4.2 1.4-2.8 1.4-6.5 0-6.1-3.2-11.1-3.1-5-9.2-7.9-5.9-3.1-14.5-3.1h-0.5q-8.6 0-14.7 3.1-5.9 2.9-9.2 7.9-3 5-3 11.1 0 3.8 1.3 6.6 1.4 2.6 3.9 4.1 2.6 1.4 6.2 1.4zm-379.4 119q-7.8 0-12.4-2.9-4.6-3-4.6-8.1 0-3 1.5-5 1.7-2.1 4.2-3.4 2.6-1.4 5.6-2.3 3.1-1 6.1-1.8 3.1-1 5.6-2.2 2.6-1.3 4.1-3.1 1.6-2 1.6-4.9 0-3.9-2.5-6-2.4-2.1-7-2.1-3.8 0-6.3 1.8-2.4 1.7-2.4 4.8 0 2.4 1.4 3.7 1.4 1.2 3.6 1.4l-0.7 1.2q-0.6-0.4-0.9-1-0.2-0.6-0.2-1.4 0-1.5 0.9-2.4 1.1-0.9 2.5-0.9 1.6 0 2.5 1 1 1 1 2.6 0 1.8-1.3 2.9-1.1 0.9-3.4 0.9-3.4 0-5.9-2.2-2.4-2.2-2.4-5.7 0-4.2 3.1-6.7 3.1-2.5 8.5-2.5 6.3 0 9.6 3.2 3.4 3 3.4 7.6 0 3.8-2.1 6.3-2 2.4-5.2 4-3.2 1.5-6.9 2.6-3.5 1.1-6.7 2.2-3.2 1-5.3 2.6-2 1.4-2 3.9 0 3.2 3.4 4.8 3.5 1.6 9.4 1.6 5.3 0 9.9-1.2 4.6-1.3 8.2-3.6 3.5-2.4 5.5-5.8 2.1-3.4 2.1-7.8 0-4.9-2.2-8.4-2-3.6-5.8-6-3.6-2.4-8.4-3.6l4.4-0.8q7.3 2.5 11.6 7.9 4.4 5.3 4.4 12.5 0 5.1-2.2 9.3-2.2 4-6.2 7-3.9 2.9-9.3 4.5-5.4 1.5-11.8 1.5zm-2.9-41.5h-13.7l0.4-5.1h30.1q3.8 0 6.1-0.5 2.3-0.6 3.7-1.8 2.5-2 2.5-5.9 0-3.1-1.4-5.6-1.2-2.5-3-4.4l2.4-1.7q2.4 2.7 3.8 6 1.5 3.3 1.5 6.8 0 2.6-0.7 4.9-0.7 2.2-2.6 3.8-1.2 1-2.9 1.9-1.6 0.7-4 1.2-2.3 0.4-5.7 0.4h-5l-5.7-1.2zm45.6 41.5q-3.9 0-7.1-1.6-3.1-1.9-5.6-5.1-2.5-3.3-5-7.7l1.7-1q1.8 2.6 4 4.9 2.2 2.3 5 3.7 2.9 1.4 6.9 1.4 4 0 6.5-1.9 2.7-1.9 3.9-5 1.3-3.2 1.3-7.2 0-8.2-4.3-13.2-4.3-5.1-11.9-7-0.2-0.3-0.3-0.9-0.1-0.7-0.1-1.3 0-1.2 0.4-2 0.6-0.9 1.6-0.9 2.4 0 5.4 2 3.1 1.8 5.9 5.2 2.7 3.4 4.5 8.1 1.9 4.6 1.9 10.3 0 5.4-1.8 9.8-1.5 4.4-4.8 7-3.2 2.4-8.1 2.4zm52.1 14.8q-1.6 0-2.4-0.7-0.7-0.7-0.7-2.2 0-1.2 0.2-3.2 0.4-2.1 0.9-4.5 0.5-2.5 1-4.4h2q0.5 1.8 0.9 4.3 0.5 2.3 0.8 4.5 0.3 2.1 0.3 3.3 0 1.5-0.8 2.2-0.7 0.7-2.2 0.7zm-14.2-14.8q-5.4 0-8.9-3.1-3.3-3.3-3.3-8.1 0-4.1 2.1-7.2 2.3-3.1 6.1-6.7 2.3-2.1 3.8-3.7 1.5-1.6 2.2-3.2 0.8-1.7 0.8-3.8 0-2.9-1.9-4.8-1.7-1.9-5.2-1.9-3.5 0-5.5 1.9-1.9 1.8-1.9 4.7 0 2 0.5 3.4 0.6 1.3 1.5 2.7l-2 1.4q-1.6-1.8-2.6-4-0.8-2.2-0.8-5 0-4 2.7-6.9 3-3 8.3-3 5.3 0 8 3.1 2.7 2.9 2.7 7.5 0 2.4-0.8 4.3-0.8 2-2.5 4-1.6 1.9-4.2 4.4-2.2 2-3.8 3.8-1.6 1.7-2.5 3.5-0.9 1.8-0.9 4 0 3.4 2.3 5.3 2.5 2 6.3 2 3 0 5.1-1 2.3-1.1 3.7-2.9 1.5-1.8 2.4-4.1 1-2.2 1.4-4.7h2.5q0.6 3.2 1.8 6.2 1.2 2.8 3.5 4.7 2.3 1.8 6.2 1.8 4.9 0 7.3-3.4 2.5-3.4 2.5-9.6 0-4.9-1.6-9.1-1.7-4.2-4.6-7.3-2.9-3.2-6.9-4.9-3.8-1.8-8.4-1.8l4.8-2.3 1.9 1.3q3.9 0.7 7.3 3 3.4 2.2 6 5.7 2.5 3.4 3.9 7.7 1.5 4.2 1.5 9 0 5.2-1.5 9-1.6 3.9-4.6 6-2.8 2.1-6.9 2.1-3.9 0-6.8-1.6-2.7-1.8-4.6-4.8-1.6-3-2.4-6.8l0.7-0.1q-0.9 3.9-2.9 7-1.8 3-4.7 4.7-2.9 1.6-7.1 1.6zm34.1-41.5h-19.2l0.4-5.1h18.8zm26.9 41.6q-4.1 0-7.2-1.7-2.9-1.7-4.6-4.7-1.5-3-1.5-6.6 0-3.6 1.4-6.2 1.4-2.8 3.6-4.3 2.3-1.5 4.9-1.5 2.2 0 3.3 1.3 1.3 1.1 1.3 3 0 1.6-1 2.9-1 1-2.9 1-1.7 0-2.8-0.9-1-0.9-1-2.8 0-0.7 0-1.2 0.2-0.5 0.4-1l0.7 1.3q-2.1 0.5-3.6 2.8-1.4 2.2-1.4 5.3 0 3.8 2.6 6.3 2.7 2.5 7.5 2.5 4.3 0 7.2-2.2 2.9-2.2 4.3-6 1.5-3.9 1.5-8.9 0-10.2-5.7-15.1-5.6-4.9-16.8-4.9h-24l0.5-5h24q12.5 0 18.8 6.4 6.3 6.2 6.3 18.7 0 5.9-1.8 10.9-1.7 4.8-5.2 7.7-3.4 2.9-8.8 2.9zm42.5 0q-7.8 0-12.5-2.9-4.5-3-4.5-8.1 0-3.1 1.5-5 1.6-2.1 4.2-3.4 2.5-1.4 5.5-2.3 3.2-1 6.2-1.9 3-1 5.5-2.1 2.6-1.3 4.2-3.2 1.5-1.9 1.5-4.8 0-4-2.5-6-2.4-2.1-6.9-2.1-3.9 0-6.3 1.8-2.4 1.7-2.4 4.8 0 2.4 1.3 3.7 1.4 1.2 3.6 1.4l-0.6 1.2q-0.6-0.4-1-1-0.2-0.7-0.2-1.4 0-1.5 1-2.4 1-0.9 2.4-0.9 1.6 0 2.5 1 1.1 1 1.1 2.6 0 1.8-1.3 2.8-1.2 0.9-3.4 0.9-3.5 0-6-2.1-2.4-2.3-2.4-5.7 0-4.2 3.1-6.7 3.1-2.5 8.5-2.5 6.3 0 9.6 3.1 3.4 3 3.4 7.7 0 3.8-2.1 6.3-1.9 2.4-5.2 4-3.2 1.4-6.8 2.6-3.6 1-6.8 2.1-3.2 1-5.3 2.7-2 1.4-2 3.9 0 3.2 3.5 4.8 3.5 1.6 9.3 1.6 5.3 0 10-1.2 4.6-1.3 8.1-3.6 3.6-2.4 5.6-5.8 2.1-3.5 2.1-7.8 0-4.9-2.2-8.4-2.1-3.7-5.8-6-3.7-2.4-8.5-3.7l4.4-0.7q7.4 2.5 11.7 7.9 4.4 5.3 4.4 12.5 0 5.1-2.2 9.2-2.2 4.1-6.2 7.1-4 2.8-9.4 4.5-5.3 1.5-11.7 1.5zm-3-41.6h-13.6l0.4-5h30q3.9 0 6.2-0.6 2.3-0.6 3.7-1.8 2.4-1.9 2.4-5.8 0-3.1-1.4-5.6-1.2-2.6-2.9-4.4l2.4-1.7q2.4 2.6 3.8 6 1.4 3.2 1.4 6.8 0 2.6-0.7 4.9-0.7 2.1-2.5 3.8-1.2 1-2.9 1.8-1.6 0.8-4 1.2-2.3 0.4-5.8 0.4h-5l-5.6-1.1zm62.1 41.5q-6.4 0-10.8-3.1-4.5-3.1-6.9-8.4-2.4-5.4-2.4-12.2 0-7.7 2.7-13 2.7-5.3 7.2-8 4.6-2.8 10.1-2.8 5.8 0 10.2 2.8 4.5 2.8 7 8.2 2.6 5.2 2.6 12.8 0 6.1-1.7 10.7-1.6 4.5-4.4 7.4-2.7 2.8-6.3 4.3-3.5 1.3-7.3 1.3zm0-5.5q5.1 0 8.8-2.2 3.7-2.3 5.7-6.4 2.1-4.1 2.1-9.6 0-8.4-4.5-13.3-4.3-5-12.1-5-5 0-8.9 2.2-3.8 2-6 6.1-2.1 4-2.1 9.8 0 5.8 2.2 10 2.1 4.1 5.9 6.3 4 2.1 8.9 2.1zm33.9 5.5q-3.1 0-5.8-1-2.6-1.1-4.9-2.9-2.1-2-4.1-4.5-1.9-2.6-3.7-5.7l2.4-1.8q2.9 4.6 6.6 7.5 3.7 2.9 9 2.9 4.3 0 7-1.8 2.8-1.9 4.2-5.2 1.4-3.3 1.4-7.6 0-6-2.5-10.8-2.5-4.9-7.1-7.7-4.4-2.9-10.3-2.9l6.1-2.8 2.8 2.1q4.7 1.9 7.9 5.4 3.4 3.4 5.1 7.9 1.9 4.4 1.9 9.3 0 5.1-1.6 9.7-1.5 4.4-5.1 7.2-3.4 2.7-9.3 2.7zm0-41.5h-10l0.4-5.1h9.9q3.9 0 6.1-0.5 2.4-0.6 3.8-1.8 1.1-1 1.7-2.4 0.7-1.6 0.7-3.5 0-3.1-1.3-5.6-1.3-2.5-3-4.4l2.3-1.7q2.5 2.7 3.9 6 1.4 3.3 1.4 6.8 0 2.6-0.7 4.9-0.7 2.2-2.5 3.8-1.3 1-3 1.9-1.5 0.7-3.9 1.2-2.3 0.4-5.8 0.4zm29.4 41.5q-3.8 0-6.9-1.6-3-1.7-5.6-4.5-2.4-2.9-4.6-6.5l2.1-2q2.5 3.7 5.9 6.4 3.5 2.7 8.9 2.7 4.1 0 6.6-1.8 2.6-1.9 3.8-5.1 1.3-3.2 1.3-7.1 0-5.4-1.9-9.4-1.9-4.1-5.5-6.8-3.6-2.7-8.8-3.9-0.1-0.4-0.2-1-0.1-0.6-0.1-1.2 0-1.2 0.4-2 0.6-1 1.6-1 2.4 0 5.4 2 3 1.8 5.8 5.2 2.8 3.4 4.6 8.1 1.8 4.6 1.8 10.2 0 5.5-1.7 9.9-1.5 4.4-4.8 6.9-3.2 2.5-8.1 2.5zm30.7-0.9h-5.5v-9.6q0-6.2 1.1-11.4 1.2-5.3 3.5-9.7 2-4 4.7-6.9 2.9-2.8 6.7-4.1l0.5 1.1h-16.5l0.3-5.1h26.3q3.8 0 6.1-0.5 2.3-0.6 3.7-1.8 2.5-2.1 2.5-5.9 0-3.1-1.4-5.6-1.2-2.5-3-4.4l2.4-1.7q2.5 2.7 3.8 6 1.5 3.3 1.5 6.8 0 2.6-0.8 4.8-0.6 2.2-2.5 3.9-1.7 1.6-4.7 2.6-2.8 0.9-7.9 0.9h-0.9l0.7-1.1q3.7 1.2 6.4 3.9 2.8 2.6 4.7 6.4 2.6 4.5 3.8 10.1 1.2 5.4 1.2 11.5v9.8h-5.5v-9q0-3.9-0.3-7.1-0.2-3.3-0.7-6.1-0.3-2.9-1.1-5.3-1.8-6.2-5.4-9.6-3.5-3.5-8-3.5-4.9 0-8.6 3.7-3.5 3.6-5.2 9.9-0.6 2.3-1.1 5.1-0.4 2.7-0.7 5.9-0.1 3.1-0.1 6.7zm106.5 0.9q-5 0-8.8-2.5-3.7-2.5-6.6-7.1-2.8-4.7-5.3-11l2.4-1.2q2 4.7 4.4 8.4 2.6 3.6 5.8 5.8 3.3 2.1 7.7 2.1 4 0 6.5-1.9 2.7-1.9 3.8-5 1.4-3.2 1.4-7.1 0-8.3-4.3-13.3-4.3-5.1-11.9-7-0.1-0.3-0.3-0.9-0.1-0.7-0.1-1.3 0-1.1 0.5-2 0.5-0.9 1.5-0.9 2.5 0 5.4 2 3.1 1.8 5.8 5.3 2.9 3.3 4.6 8 1.9 4.7 1.9 10.3 0 5.4-1.7 9.9-1.6 4.3-4.8 6.9-3.2 2.5-7.9 2.5zm-35.8 0q-5.2 0-8-2.6-2.6-2.6-2.6-6.4 0-2.4 1.5-4.7 1.6-2.3 4.7-3.2l0.2 1.2q-0.5 0-1 0.1-0.4 0-1.6-0.1-3.2 0-6.4-0.9-3.2-1-5.9-2.8-2.6-2-4.2-5-1.6-3-1.6-7.2 0-4.4 1.9-7.9 1.9-3.7 5.3-5.9 3.5-2.2 8.1-2.2 4.6 0 6.9 2.8 2.4 2.7 2.4 6.7 0 4.1-2.3 6.8-2.2 2.5-6.2 2.5-4.1 0-6.4-2.4-2.2-2.5-2.2-6.5 0-1.7 0.4-2.9 0.6-1.4 1.4-2.2h0.3q-3.3 1.9-5 4.6-1.6 2.5-1.6 5.8 0 3.3 1.2 5.5 1.2 2.2 3.6 3.6 2.3 1.3 5.6 2 3.4 0.6 7.6 0.8 3.5 0.2 5.7 0.8 2.3 0.5 4 1.8l0.8 1q1.9 1.2 2.8 3.3 1.1 1.9 1.1 4.3 0 3.8-2.5 6.6-2.4 2.7-8 2.7zm0-4.5q3.7 0 5.5-1.7 1.8-1.6 1.8-3.9 0-2.4-1.8-3.9-1.8-1.8-5.5-1.8-3.6 0-5.4 1.8-1.7 1.7-1.7 4 0 2.1 1.7 3.8 1.7 1.7 5.4 1.7zm-8.9-28.5q3 0 4.2-1.5 1.4-1.6 1.4-3.6 0-2.2-1.5-3.6-1.5-1.5-4.2-1.5-2.6 0-4.2 1.4-1.4 1.4-1.4 3.7 0 2.3 1.4 3.8 1.5 1.3 4.3 1.3zm14.8 17.2l-3.3-2.8q4.6-0.5 8.5-1.7 3.9-1.3 6.3-3.7 2.3-2.5 2.3-6.4 0-3.9-2.7-6.9-2.6-3-8.1-4.5l3.2-1.1q5.8 1.6 8.7 5.1 2.9 3.4 2.9 7.7 0 4.5-2.4 7.5-2.3 2.8-6.4 4.6-3.9 1.5-9 2.2zm1.7-25.8h-2.2l0.4-5.1h2.1q3.8 0 6.1-0.5 2.3-0.6 3.7-1.8 2.5-1.9 2.5-5.9 0-3-1.4-5.6-1.2-2.5-3-4.3l2.4-1.8q2.4 2.7 3.9 6.1 1.4 3.2 1.4 6.8 0 2.6-0.7 4.9-0.7 2.1-2.6 3.7-1.2 1.1-2.9 1.9-1.6 0.8-3.9 1.2-2.3 0.4-5.8 0.4z"/>
</svg>