<svg version="1.2" xmlns="http://www.w3.org/2000/svg" viewBox="0 0 1080 1080" width="1080" height="1080">
	<style>
		.s0 { fill: #c4a2e6;stroke: #ffffff;stroke-miterlimit:10;stroke-width: 6 } 
		.s1 { fill: #f9dcc5 } 
		.s2 { fill: #eecaad } 
		.s3 { fill: #bf8962 } 
		.s4 { fill: none;stroke: #000000;stroke-linecap: round;stroke-linejoin: round;stroke-width: .5 } 
		.s5 { fill: #367755 } 
		.s6 { fill: #bf503c } 
		.s7 { fill: #ffffff;stroke: #000000;stroke-linecap: round;stroke-linejoin: round;stroke-width: .5 } 
		.s8 { fill: #8f5138 } 
		.s9 { fill: #645188 } 
		.s10 { fill: #544677 } 
		.s11 { fill: #ffffff } 
	</style>
	<g id="Layer 1">
	</g>
	<path id="&lt;Path&gt;" class="s0" d="m138 856.94v-633.99c0-101.59 82.36-183.95 183.95-183.95h435.61c101.6 0 183.96 82.36 183.96 183.95v633.99c0 101.59-82.36 183.95-183.96 183.95h-435.61c-101.59 0-183.95-82.36-183.95-183.95z"/>
	<path id="&lt;Path&gt;" class="s1" d="m329.68 546.85c0 0 21.85-61.63 33.2-60.62 11.34 1-33.2 60.62-33.2 60.62z"/>
	<path id="&lt;Path&gt;" class="s1" d="m260.28 651.48c0 0-38.58-88.87-26.56-92.42 12.01-3.55 26.56 92.42 26.56 92.42z"/>
	<path id="&lt;Path&gt;" class="s1" d="m267.62 563.95c0 0-10.66-50.49-0.48-53.3 10.18-2.8 0.48 53.3 0.48 53.3z"/>
	<path id="&lt;Path&gt;" class="s1" d="m267.78 644.81c0 0 28.83-150.52 41.04-152.14 35.29-4.68-41.04 152.14-41.04 152.14z"/>
	<path id="&lt;Path&gt;" class="s1" d="m284.74 636.23c0 0 66.82-104.84 87.51-76.24 7.68 10.62-87.51 76.24-87.51 76.24z"/>
	<path id="&lt;Path&gt;" class="s1" d="m288.09 651.85c0 0 45.08-19.47 51.57-10.07 6.49 9.4-51.57 10.07-51.57 10.07z"/>
	<path id="&lt;Path&gt;" class="s1" d="m389.17 555.27l-3.36-7.14-7.78-1.27 5.75-5.4-1.19-7.79 6.91 3.79 7.04-3.54-1.47 7.74 5.54 5.61-7.82 0.99z"/>
	<path id="&lt;Path&gt;" class="s1" d="m260.73 498.8l-3.36-7.13-7.78-1.28 5.75-5.4-1.2-7.79 6.92 3.79 7.04-3.54-1.47 7.74 5.54 5.61-7.82 0.99z"/>
	<path id="&lt;Path&gt;" class="s1" d="m356.09 638.19l-3.36-7.13-7.78-1.28 5.75-5.4-1.2-7.79 6.91 3.79 7.05-3.54-1.48 7.75 5.55 5.6-7.82 0.99z"/>
	<path id="&lt;Path&gt;" class="s2" d="m808.34 691.79c0 0-21.97-61.99-33.38-60.97-11.42 1.01 33.38 60.97 33.38 60.97z"/>
	<path id="&lt;Path&gt;" class="s2" d="m878.14 797.01c0 0 38.8-89.37 26.71-92.94-12.08-3.57-26.71 92.94-26.71 92.94z"/>
	<path id="&lt;Path&gt;" class="s2" d="m870.75 708.99c0 0 10.73-50.78 0.49-53.6-10.24-2.83-0.49 53.6-0.49 53.6z"/>
	<path id="&lt;Path&gt;" class="s2" d="m870.6 790.31c0 0-29-151.38-41.28-153.01-35.49-4.7 41.28 153.01 41.28 153.01z"/>
	<path id="&lt;Path&gt;" class="s2" d="m853.54 781.69c0 0-67.21-105.45-88.01-76.68-7.73 10.67 88.01 76.68 88.01 76.68z"/>
	<path id="&lt;Path&gt;" class="s2" d="m850.17 797.39c0 0-45.34-19.58-51.87-10.13-6.53 9.45 51.87 10.13 51.87 10.13z"/>
	<path id="&lt;Path&gt;" class="s2" d="m748.51 700.25l3.38-7.17 7.82-1.28-5.77-5.43 1.19-7.84-6.95 3.82-7.08-3.57 1.48 7.79-5.58 5.64 7.87 1z"/>
	<path id="&lt;Path&gt;" class="s2" d="m877.68 643.46l3.38-7.17 7.83-1.28-5.78-5.43 1.2-7.84-6.95 3.81-7.09-3.56 1.49 7.79-5.58 5.64 7.87 1z"/>
	<path id="&lt;Path&gt;" class="s2" d="m781.78 783.65l3.38-7.17 7.82-1.29-5.77-5.43 1.19-7.83-6.95 3.81-7.08-3.56 1.48 7.79-5.57 5.64 7.86 0.99z"/>
	<path id="&lt;Path&gt;" class="s3" d="m407.03 749.08l59.63 218.86h182.62l37.27-218.86z"/>
	<path id="&lt;Path&gt;" class="s4" d="m451.75 770.87l35.04 181.73 38.26-2.71-14.6-200.81 52.6 21.92-1.87 181.6 32.82-3.11 11.68-183.17h37.4l-14.04 183.94"/>
	<path id="&lt;Path&gt;" class="s1" d="m410.75 825.9c16.12 13.64 28.16 9.11 28.16 0 0-9.11-10.76-51.26 0-55.03 10.77-3.78 22.37 19.45 42.24 29.78 19.88 10.34 35.62-34.39 46.38-34.39 10.77 0 26.51 32.37 34.79 38.14 8.28 5.76 38.1-40.52 55.49-33.53 17.39 6.99 1.66 41.37 14.08 41.37 12.98 0 30.47-42.88 40.58-41.37 10.12 1.5 4.97 15.27 19.88 11.13 14.91-4.14 27.33-41.41 25.68-81.17-1.66-39.75-62.12-70.4-176.42-68.74-114.29 1.66-180.04 59.92-175.58 102.29 4.14 39.38 22.36 72.58 44.72 91.52z"/>
	<path id="&lt;Path&gt;" class="s5" d="m630.89 565.97c0 0-12.27-62.95 3.72-63.98 17.29-1.11 12.84 68.07 12.84 68.07 0 0 38.05-53.95 49.9-42.6 13.67 13.08-46.59 59.63-46.59 59.63 0 0 67.86-17.45 70.82 0 2.74 16.22-62.12 21.65-62.12 21.65 0 0 55.49 19.93 49.07 33.29-6.26 13.04-55.28-17.05-55.28-17.05z"/>
	<path id="&lt;Path&gt;" class="s6" d="m487.4 652.31c-5.44-14.43 15.09-45.37 40.41-72.46 15.97-17.08 34.81-40.6 57.39-43 58.39-6.22 102.16 71.74 82.3 105.18-22.33 37.62-167.92 42.65-180.1 10.28z"/>
	<path id="&lt;Path&gt;" class="s7" d="m579.16 564.52l-12.25 7.49"/>
	<path id="&lt;Path&gt;" class="s7" d="m594 579.85l-4.04 3.74"/>
	<path id="&lt;Path&gt;" class="s7" d="m637.26 573.64l-4.04 3.75"/>
	<path id="&lt;Path&gt;" class="s7" d="m639.29 637.14l-4.05 3.74"/>
	<path id="&lt;Path&gt;" class="s7" d="m630.89 597.65l-6.13 3.75"/>
	<path id="&lt;Path&gt;" class="s7" d="m611.81 551.04l-6.13 3.75"/>
	<path id="&lt;Path&gt;" class="s7" d="m561.18 587.88l-12.26 7.49"/>
	<path id="&lt;Path&gt;" class="s7" d="m654.9 608.77l-12.25 7.49"/>
	<path id="&lt;Path&gt;" class="s7" d="m527.81 601.29l-12.25 7.48"/>
	<path id="&lt;Path&gt;" class="s7" d="m535.92 639.2l-12.26 7.49"/>
	<path id="&lt;Path&gt;" class="s7" d="m601.7 617.13l-12.26 7.49"/>
	<path id="&lt;Path&gt;" class="s7" d="m607.83 635.45l-12.26 7.49"/>
	<path id="&lt;Path&gt;" class="s8" d="m521.68 572.01c0 0 23.72-28.84 29.7-16.78 5.97 12.05-19.55 31.33-14.85 42.42 4.7 11.09 40.87-6.28 51.35 0 10.47 6.28-26.33 24.58-20.97 34.38 5.35 9.79 30.06-4.19 34.79 3.42 4.72 7.62-10.77 21.9-6.13 25.01 4.64 3.1 51.2-15.12 54.63-3.84 3.43 11.29-54.34 29.93-114.28 24.34-59.94-5.59-55.95-27.66-58.08-34.27-2.13-6.6 26.99-58.47 43.84-74.68z"/>
	<path id="&lt;Path&gt;" class="s8" d="m412.92 678.64c-3.26 0-5.89-2.63-5.89-5.89 0-3.26 2.63-5.89 5.89-5.89 3.26 0 5.89 2.63 5.89 5.89 0 3.26-2.63 5.89-5.89 5.89z"/>
	<path id="&lt;Path&gt;" class="s8" d="m471.31 687.22c0 1.16-0.94 2.11-2.11 2.11-1.16 0-2.1-0.95-2.1-2.11 0-1.16 0.94-2.11 2.1-2.11 1.17 0 2.11 0.95 2.11 2.11z"/>
	<path id="&lt;Path&gt;" class="s8" d="m504.48 713.55c-3.2 0-5.79-2.59-5.79-5.79 0-3.21 2.59-5.8 5.79-5.8 3.21 0 5.8 2.59 5.8 5.8 0 3.2-2.59 5.79-5.8 5.79z"/>
	<path id="&lt;Path&gt;" class="s8" d="m460.32 656.35c-4.74 0-8.57-3.83-8.57-8.57 0-4.75 3.83-8.58 8.57-8.58 4.74 0 8.58 3.83 8.58 8.58 0 4.74-3.84 8.57-8.58 8.57z"/>
	<path id="&lt;Path&gt;" class="s8" d="m449.79 710.95c-4.79 0-8.67-3.87-8.67-8.67 0-4.79 3.88-8.66 8.67-8.66 4.79 0 8.67 3.87 8.67 8.66 0 4.8-3.88 8.67-8.67 8.67z"/>
	<path id="&lt;Path&gt;" class="s8" d="m406.66 720.27c-3.46 0-6.26-2.8-6.26-6.26 0-3.46 2.8-6.25 6.26-6.25 3.46 0 6.26 2.79 6.26 6.25 0 3.46-2.8 6.26-6.26 6.26z"/>
	<path id="&lt;Path&gt;" class="s8" d="m548.92 732.88c-2.84 0-5.13-2.29-5.13-5.13 0-2.84 2.29-5.13 5.13-5.13 2.84 0 5.13 2.29 5.13 5.13 0 2.84-2.29 5.13-5.13 5.13z"/>
	<path id="&lt;Path&gt;" class="s8" d="m600.63 712.07c-2.8 0-5.06-2.26-5.06-5.05 0-2.8 2.26-5.06 5.06-5.06 2.79 0 5.05 2.26 5.05 5.06 0 2.79-2.26 5.05-5.05 5.05z"/>
	<path id="&lt;Path&gt;" class="s8" d="m621.59 747.33c-5.41 0-9.78-4.38-9.78-9.79 0-5.41 4.37-9.79 9.78-9.79 5.42 0 9.79 4.38 9.79 9.79 0 5.41-4.37 9.79-9.79 9.79z"/>
	<path id="&lt;Path&gt;" class="s8" d="m672.1 696.02c-3.88 0-7.02-3.14-7.02-7.02 0-3.88 3.14-7.02 7.02-7.02 3.88 0 7.02 3.14 7.02 7.02 0 3.88-3.14 7.02-7.02 7.02z"/>
	<path id="&lt;Path&gt;" class="s8" d="m699.22 713.98c0 1.67-1.36 3.03-3.03 3.03-1.67 0-3.03-1.36-3.03-3.03 0-1.67 1.36-3.03 3.03-3.03 1.67 0 3.03 1.36 3.03 3.03z"/>
	<path id="&lt;Path&gt;" class="s8" d="m695.24 673.73c-4.8 0-8.69-3.89-8.69-8.69 0-4.81 3.89-8.69 8.69-8.69 4.81 0 8.7 3.88 8.7 8.69 0 4.8-3.89 8.69-8.7 8.69z"/>
	<path id="&lt;Path&gt;" class="s8" d="m543.79 699.57c-3.29 0-5.96-2.66-5.96-5.95 0-3.3 2.67-5.96 5.96-5.96 3.3 0 5.96 2.66 5.96 5.96 0 3.29-2.66 5.95-5.96 5.95z"/>
	<path id="&lt;Path&gt;" class="s8" d="m639.53 691.47c0 1.19-0.96 2.15-2.14 2.15-1.19 0-2.15-0.96-2.15-2.15 0-1.18 0.96-2.14 2.15-2.14 1.18 0 2.14 0.96 2.14 2.14z"/>
	<path id="&lt;Path&gt;" class="s8" d="m491.04 744.83c0 2.35-1.9 4.25-4.25 4.25-2.34 0-4.25-1.9-4.25-4.25 0-2.35 1.91-4.25 4.25-4.25 2.35 0 4.25 1.9 4.25 4.25z"/>
	<path id="&lt;Path&gt;" class="s8" d="m384.34 761.89c-3.54 0-6.4-2.87-6.4-6.41 0-3.54 2.86-6.4 6.4-6.4 3.54 0 6.4 2.86 6.4 6.4 0 3.54-2.86 6.41-6.4 6.41z"/>
	<path id="&lt;Path&gt;" class="s5" d="m737.4 888.49c0 0-11.04-56.65 3.35-57.57 15.55-1 11.55 61.26 11.55 61.26 0 0 34.25-48.55 44.91-38.34 12.29 11.77-41.93 53.66-41.93 53.66 0 0 61.07-15.71 63.73 0 2.47 14.59-55.9 19.48-55.9 19.48 0 0 49.93 17.93 44.16 29.96-5.63 11.73-49.75-15.34-49.75-15.34z"/>
	<path id="&lt;Path&gt;" class="s6" d="m608.27 966.19c-4.79-13.02 18.53-34.09 41.31-58.47 14.37-15.38 26.38-45.03 46.7-47.19 52.55-5.59 91.93 66.31 74.07 96.41-20.1 33.85-149.44 43.54-162.08 9.25z"/>
	<path id="&lt;Path&gt;" class="s7" d="m690.85 887.19l-11.03 6.74"/>
	<path id="&lt;Path&gt;" class="s7" d="m722.16 887.19l-11.03 6.74"/>
	<path id="&lt;Path&gt;" class="s7" d="m737.4 917l-11.03 6.74"/>
	<path id="&lt;Path&gt;" class="s7" d="m686.26 917l-11.03 6.74"/>
	<path id="&lt;Path&gt;" class="s7" d="m644.64 933.48l-11.03 6.74"/>
	<path id="&lt;Path&gt;" class="s7" d="m651.94 954.39l-11.03 6.74"/>
	<path id="&lt;Path&gt;" class="s7" d="m697.63 947.65l-11.02 6.74"/>
	<path id="&lt;Path&gt;" class="s7" d="m727.67 957.76l-11.03 6.74"/>
	<path id="&lt;Path&gt;" class="s9" d="m372.39 992.06c-16.68 0-30.17-13.49-30.17-30.17 0-16.68 13.49-30.16 30.17-30.16 16.68 0 30.16 13.48 30.16 30.16 0 16.68-13.48 30.17-30.16 30.17z"/>
	<path id="&lt;Path&gt;" class="s10" d="m365.25 940.81l-11.03-9.08 3.9 15.24-9.09 11.68 23.36-4.22 6.81 11.03v-13.95l12.97-0.97-15.24-6.69 6.81-14.07z"/>
	<path id="&lt;Path&gt;" class="s9" d="m304.77 960.92c-16.68 0-30.16-13.48-30.16-30.16 0-16.68 13.48-30.17 30.16-30.17 16.68 0 30.16 13.49 30.16 30.17 0 16.68-13.48 30.16-30.16 30.16z"/>
	<path id="&lt;Path&gt;" class="s10" d="m294.54 910.74l-6.72-5.53 2.37 9.28-5.53 7.11 14.22-2.57 4.15 6.72v-8.49l7.9-0.6-9.28-4.08 4.15-8.56z"/>
	<path id="&lt;Path&gt;" class="s10" d="m314.45 988.69c-14.23 0-25.74-11.5-25.74-25.74 0-14.24 11.51-25.75 25.74-25.75 14.24 0 25.75 11.51 25.75 25.75 0 14.24-11.51 25.74-25.75 25.74z"/>
	<path id="&lt;Path&gt;" class="s9" d="m310.33 967.49l4.04 7.29 1.15-9.11 7.43-4.4-13.58-2.7-1.34-7.45-2.98 7.57-7.25-2.24 6.84 6.89-6.71 6.18z"/>
	<path id="&lt;Path&gt;" class="s9" d="m556.15 1008.6c-16.68 0-30.16-13.49-30.16-30.17 0-16.68 13.48-30.16 30.16-30.16 16.68 0 30.17 13.48 30.17 30.16 0 16.68-13.49 30.17-30.17 30.17z"/>
	<path id="&lt;Path&gt;" class="s10" d="m563.29 957.35l11.03-9.08-3.9 15.24 9.08 11.68-23.35-4.22-6.81 11.03v-13.94l-12.97-0.98 15.24-6.69-6.81-14.07z"/>
	<path id="&lt;Path&gt;" class="s9" d="m623.77 977.46c-16.68 0-30.17-13.48-30.17-30.16 0-16.68 13.49-30.16 30.17-30.16 16.68 0 30.16 13.48 30.16 30.16 0 16.68-13.48 30.16-30.16 30.16z"/>
	<path id="&lt;Path&gt;" class="s10" d="m634 927.28l6.72-5.53-2.37 9.28 5.53 7.11-14.22-2.57-4.15 6.72v-8.49l-7.9-0.6 9.28-4.07-4.15-8.57z"/>
	<path id="&lt;Path&gt;" class="s10" d="m614.08 1005.24c-14.23 0-25.74-11.51-25.74-25.75 0-14.24 11.51-25.75 25.74-25.75 14.24 0 25.75 11.51 25.75 25.75 0 14.24-11.51 25.75-25.75 25.75z"/>
	<path id="&lt;Path&gt;" class="s9" d="m618.21 984.03l-4.04 7.29-1.15-9.11-7.43-4.4 13.58-2.7 1.34-7.45 2.98 7.57 7.25-2.24-6.84 6.89 6.71 6.18z"/>
	<path id="&lt;Path&gt;" class="s6" d="m478.4 930.68c6.61 26.02-9.13 52.46-35.14 59.06-26.02 6.61-52.46-9.13-59.06-35.14-6.61-26.02 9.13-52.46 35.14-59.06 26.02-6.61 52.46 9.13 59.06 35.14z"/>
	<path id="&lt;Path&gt;" class="s4" d="m301.58 799.54c0 0 60.41 0.08 92.91 42.9 28.79 37.91 26.54 59.74 26.54 59.74"/>
	<path id="&lt;Path&gt;" class="s5" d="m314.07 800.53c0 0-7.72 23.1 0.71 51 8.43 27.9 21.39 36.05 21.39 36.05 0 0 8.62-35.8 2.17-52.76-6.45-16.96-24.27-34.29-24.27-34.29z"/>
	<path id="ಹ್ಯಾಪಿ ಬರ್ತ್ ಡೇ" class="s11" aria-label="ಹ್ಯಾಪಿ
ಬರ್ತ್ ಡೇ"  d="m372.8 222.2q-21.7 0-32.9-9.7-11.1-9.7-11.1-26.8 0-16.1 10.9-26 10.8-10.1 31.3-10.1 8.8 0 14.6 2.4 6 2.2 9.9 5.8 3.9 3.6 6.6 7.5l-8.8 3.6q0.3-1.2 0.5-3 0.4-1.9 0.4-3.2 0-3.2-0.9-7-0.8-3.7-3.4-7.1-2.6-3.5-7.7-5.8-4.9-2.2-13.1-2.2l39-5.5q3.5 1.2 7.3 4.3 3.7 3 6.1 7.7 2.7 4.5 2.7 10.1 0 3-0.8 6-0.5 2.8-2 6.6l-4.5-7.9q2.4-2.8 6.1-5.6 3.8-3 9.8-4.9 6.2-1.8 15.3-1.8 18.8 0 29.5 9.9 10.8 9.7 10.8 28.1 0 15.5-10.8 25.1-10.9 9.5-34.7 9.5-9.7 0-16.9-1.8-7.1-2.1-12.3-5.5-5.3-3.5-9.6-8l8.8-0.4q-3.9 4.3-8.8 8.1-4.9 3.5-12.3 5.6-7.4 2-19 2zm5.1-27.3q6.7 0 10.1-2.4 3.6-2.5 3.6-6.6 0-4.5-3.6-6.7-3.6-2.5-10.1-2.5-4.7 0-7.9 1.1-3 1.2-4.5 3.2-1.3 1.9-1.3 4.7 0 4.7 3.6 6.9 3.7 2.3 10.1 2.3zm61.2 0q7 0 10.4-2.3 3.5-2.4 3.5-6.5 0-3-1.5-5.1-1.3-2-4.3-3.2-3-1.1-7.9-1.1-7.3 0-10.5 2.8-3.1 2.7-3.1 6.2 0 4.7 3.5 6.9 3.8 2.3 9.9 2.3zm19.5-53.2h-129.6v-29.2h129.6zm131.1 28.8q0 15.9-6.3 27.6-6.4 11.6-17.8 17.9-11.3 6.2-26.6 6.2-14.1 0-23.8-4.1-9.6-4.3-14.6-12.2-5.1-8-5.1-19.5 0-7.5 3.2-13.8 3.2-6.4 9.2-10.1 6.1-4 14.8-4 10.5 0 15.3 4.7 4.9 4.5 4.9 11.8 0 6.4-3.4 10.1-3.3 3.6-10.8 3.6-3 0-5.8-0.8-2.9-0.9-5.9-3.9l3.8-6.6q-0.4 2.1-0.6 3.4 0 1.3 0 2.5 0 3.9 3 7.6 3 3.8 10.7 3.8 6.9 0 11.4-2.8 4.7-3 7-8.1 2.4-5.2 2.4-12 0-7.3-2.4-12.9-2.5-5.6-7-9-3.3-2.8-7.7-4.5-4.1-1.9-10.6-2.8-6.4-0.9-16.9-0.9h-68.6v-29.3h72.5q15.6 0 25.9 1.5 10.3 1.5 17.2 4.5 7.2 3 12.8 7.5 9.7 7.5 14.8 19.1 5 11.7 5 25.5zm8.5 128q-14 0-22.2-3.6-8.1-3.7-11.7-9.4-3.5-5.6-3.5-11.2 0-5.4 1.7-9 1.7-3.7 5.6-6.7 4.1-3 10.9-6 5-2.3 6.3-3.6 1.5-1.3 1.5-2.6 0-1.3-0.9-2.1-1-0.7-4.1-0.7-2.5 0-4.3 0.7-1.7 0.6-1.7 2.5 0 1.1 0.3 2 0.4 1 1 1.9l-18.2 6.2q-1.7-2.8-2.8-6.2-0.9-3.6-0.9-6.6 0-7.6 6.9-11.9 7.1-4.5 20.2-4.5 10.3 0 15.8 2.6 5.4 2.6 7.5 6.5 2.2 4 2.2 8.1 0 3.9-1.3 7.3-1.1 3.4-5.1 6.9-3.7 3.4-12 7.3-4.1 1.9-6 3.4-1.8 1.5-1.8 3.2 0 1.7 1.1 3 1.3 1.3 4.9 2.1 3.5 0.7 10.3 0.7 10.8 0 16.3-2.8 5.4-2.8 7.3-6.6 1.9-3.9 1.9-7.1 0-5.6-2.7-10.3-2.4-4.7-6.2-8.8-3.7-4.3-7.6-8.4-3.8-4.1-6.4-8.8-2.4-4.7-2.4-10.3 0-7.7 3.7-12.2 3.9-4.7 9.9-6.6 6.2-2 12.8-2 11.6 0 17.8 5 6.3 5.1 8.6 14.6l-21 3.2q-0.4-1.8-1.3-3-0.9-1.3-2.1-1.8-0.9-0.6-2-0.6-2.1 0-3.2 1.1-1.1 1-1.1 2.6 0 2.3 2.4 5.3 2.6 3 6.4 6.9 3.9 3.8 7.7 8.8 3.9 4.9 6.3 11.3 2.6 6.1 2.6 14 0 4.5-1.6 10.7-1.5 6-6.4 12-4.7 5.8-14.2 9.7-9.4 3.8-25.2 3.8zm101.5-76.3q-14.8 0-24.7-4.5-9.8-4.5-14.8-12.7-4.9-8.3-4.9-19.3 0-10.3 4.5-17.6 4.7-7.3 12.7-11.1 8.1-3.9 18.8-3.9 15.7 0 22.5 6.2 6.9 6.2 6.9 15.9 0 3-0.8 6.4-0.5 3.3-1.6 5.4l-23.1-1.1q0.2-0.6 0.2-1.3 0-1 0-1.5 0-2.5-1.3-3.8-1.1-1.5-3.6-1.5-2.6 0-4.1 1.7-1.3 1.7-1.3 3.8 0 5 4.5 7.3 4.7 2.2 15 2.2 10.7 0 16.1-4.3 5.4-4.5 7.3-13.1h31.1q0.4 9 4.1 12.7 3.8 3.8 9.6 3.8 3.7 0 5.6-1.3 2.1-1.3 2.8-3.6 0.9-2.4 0.9-5.4 0-6.6-3-13-2.8-6.3-6-11.2l31.3-12.7q6.8 9.9 10.1 20.2 3.4 10.3 3.4 21.2 0 12.7-5.2 20.8-5.1 7.8-14.1 11.6-8.8 3.7-19.8 3.7-10.9 0-18.6-2.6-7.5-2.6-13.3-7.5-5.6-4.9-11-11.8l15 1.3q-7.2 6.8-14.3 11.4-6.9 4.5-15.7 7-8.8 2.2-21.2 2.2zm32.2-67.2q-9.7 0-18.7-1.9-9-1.9-16.1-5.4l10.3-18.2q5.4 2.6 10.7 4.1 5.2 1.5 10.5 1.5 6.7 0 11-1.5 4.5-1.7 6.6-5.2 2-3.8 2-10.1v-1.2q0-4.5-1.7-8.8-1.6-4.3-5-7.1-3.4-3-8.4-3-3 0-5.3 1.5-2.1 1.5-2.1 4.7 0 1.9 1 3.4 0.9 1.3 2.6 2 1.9 0.8 4.5 0.8 6.7 0 11.4-4 4.7-3.9 8.1-10.3l7.9 19.7q-4 3.7-8.3 6.9-4.3 3.2-9.7 5.1-5.5 1.9-13.1 1.9-11.5 0-19-3-7.5-3.2-11-8.6-3.6-5.7-3.6-13 0-12.2 9.8-19.5 9.9-7.5 26.6-7.5 13.3 0 22.8 5.3 9.8 5.1 14.8 13.9 5.3 8.8 5.3 20.2 0 13.3-5.7 21.5-5.4 8.3-15.3 12-9.8 3.8-22.9 3.8zm-373.4 238.8q-7.5 0-13.2-1.7-5.6-1.8-10.3-5.8-4.6-4-9.3-10.5l9.9-0.6q-5.3 7.9-11.1 12-5.7 3.9-11.9 5.4-6.1 1.2-12.9 1.2-9.1 0-15.2-3.2-6.1-3.2-9.2-8.3-3-5.2-3-11 0-6.7 1.9-11.4 2.3-5 7.3-9.3 5.2-4.4 14-9.6 5.2-3.2 7.6-5.5 2.5-2.6 2.5-5.5 0-1.7-0.9-2.9-0.7-1.2-2.5-1.8-1.7-0.7-4.5-0.7-4.6 0-6.7 1.9-1.9 2-1.9 4.9 0 1.8 0.6 3.9 0.6 1.9 1.3 3.4l-18 6.6q-1.9-3.1-3.2-7.5-1.2-4.3-1.2-8.4 0-6.1 3.1-10.9 3.1-4.8 9.7-7.4 6.7-2.9 17.1-2.9 10.8 0 16.9 3.3 6.3 3.1 8.8 8 2.7 4.8 2.7 9.7 0 5.7-2.1 10-2.1 4.3-7 8.5-4.9 4.1-13.4 9.3-6.4 3.9-8.5 6.1-1.9 2.3-1.9 5.2 0 3.3 2.4 4.9 2.5 1.7 7.6 1.7 7.8 0 12.2-4.3 4.3-4.4 4.7-11.3h19.5q0.6 8.1 4.9 11.9 4.5 3.7 9.7 3.7 7.4 0 11.3-4.6 4-4.6 4-12.8 0-7.8-3.3-13.6-3.1-5.8-8.8-9.9-5.5-4.5-12.6-7.8l11.5-18.3q9.9 4.8 17.8 11.9 7.9 7 12.5 16.6 4.6 9.5 4.6 21.4 0 10.8-3.9 19-3.7 8-11.1 12.5-7.4 4.5-18.5 4.5zm92 0q-13.4 0-22.6-2.6-9.1-2.6-14.7-7.3-5.5-4.6-8.1-10.8-2.3-6.3-2.3-13.5 0-1.2 0.1-3.5 0.2-2.3 0.8-4.9l20.6 2.6q-0.1 0.8-0.3 1.7 0 0.9 0 1.5 0 3.1 0.8 6.4 0.9 3.1 3.4 5.8 2.7 2.7 7.9 4.3 5.2 1.7 14.1 1.7 7.1 0 12-1.2 5-1.2 7.8-3.3 2.8-2.2 4-4.9 1.3-2.7 1.3-5.8 0-2.5-0.9-4.6-0.9-2.1-2.5-3.7-0.4-0.6-1-0.9-0.5-0.5-0.9-0.9-2.4-1.6-5.5-2.2-3-0.8-6.3-0.8-4.3 0-5.8 1.2-1.5 1.2-1.5 2.5 0 1.7 1.7 2.7 1.6 0.9 4.4 0.9 2.7 0 4.9-1 2.4-1.2 3.8-3.8 1.3-2.5 1.3-6.4 0-5.3-1.9-8.6-2-3.5-4.9-5.5-3-2.2-6.4-3.4l18.7-6.4q6 4 10 9.7 4.1 5.3 4.3 13.2 0 0.5-0.2 1.6 0 0.9 0 1.4l-3.5 5.3q-2.4 4.8-5.8 8.8-3.5 3.9-8.8 6.3-5.4 2.3-13.8 2.3-11.3 0-16.7-4.7-5.3-5.1-5.3-12.2 0-4.5 2.2-8.2 2.4-4 7.4-6.4 5.2-2.5 13.6-2.5 5.2 0 9.2 0.9 4.1 0.6 9 2.9 0.6 0.2 0.9-0.1 0.3-0.6 0.6-1 0.5-0.6 0.9-0.5 9.2 3.3 13.9 10.3 4.6 7 4.6 15.7 0 8.2-3.3 14.3-3.1 6-9.1 10-5.9 3.8-14.1 5.8-8.2 1.8-18 1.8zm27.2-65.2h-74.6v-18.7h74.6zm49.5 27q-12.8 0-20.2-7.7-7.3-7.9-7.3-22.4v-1.8q0-12.4 4.2-20.5 4.5-8.4 12.2-12.5 7.9-4.2 18.1-4.2 7.5 0 12.7 1.3 5.3 1.2 9 3.2l-9.2 13.8q-2.7-1.2-5.5-1.9-2.8-0.8-6.7-0.8-4.1 0-8 1.8-3.9 1.8-6.3 6.4-2.3 4.5-2.3 12.6v5.8q0 5.2 1.9 8.8 2.1 3.3 7 3.3 2.5 0 4.3-1.2 1.8-1.5 1.8-4.5 0-1.6-0.8-2.8-0.5-1.3-1.7-1.9-1.4-0.9-3.5-1.2-2-0.6-5.5-0.6h-47.4v-18.8h45.7q8 0 13.9 1.5 6.1 1.5 10.7 5.7 3.5 3.1 5.2 7.3 1.8 4.1 1.8 9.6 0 10.9-6.8 16.4-6.7 5.3-17.3 5.3zm112.9-45.8v18.8h-43.4q-6 0-8.3 0.3-2.3 0.1-3.8 0.6-1.9 0.7-3.1 2.2-1.2 1.3-1.2 3.6 0 1.9 0.8 3.2 0.9 1.2 2.3 2.1 1.5 0.8 3.6 1.2 2.2 0.3 6.6 0.3h20.9v18.3h-18.3q-3.2 0-5.2 0.2-1.9 0-3.1 0.3-1.2 0.1-2.2 0.4-2 0.6-3.1 1.9-1.2 1.4-1.2 3.5 0 2.6 1.5 4.1 1.6 1.5 4.1 2.1 2.5 0.4 5.2 0.4h2.5v18.6h-4.7q-6 0-11.5-1-5.5-1.2-9.9-3.6-4.3-2.7-7-7-2.5-4.4-2.5-10.8 0-4 1.1-7.5 1.5-3.4 4.4-6.2 2.8-3 6.9-5.1l-0.2 1.8q-5.8-3.1-9.6-8-3.7-5.1-3.7-13.1 0-4.2 1.7-7.9 1.9-3.8 5-6.4 3.4-2.8 7.4-4.3 4.4-1.6 10.3-2.2 6-0.8 14.7-0.8zm78.8 83.9q-13.1 0-20.8-8.5-7.7-8.4-7.7-24.8 0-8 2.2-14.6 2.4-6.8 7.1-12 4.8-5.4 12.1-8.8l4.3 3.6h-25.7v-18.8h71.2q9.1 0 13.1-1 4.2-1.2 6.2-3.1 1.8-1.8 2.4-4 0.8-2.3 0.8-4.8 0-4.3-2.9-7.3-2.6-3.1-7.8-3.1-4.8 0-8.2 2.5-3.4 2.3-3.4 6.7 0 0.6 0 1.5 0.1 0.7 0.3 1.9l-5.1-8q1.2-1.6 2.8-2.2 1.7-0.6 3-0.6 3.6 0 6.1 2.4 2.7 2.2 2.7 5.9 0 4-2.9 6.4-2.6 2.4-8.3 2.4-6.1 0-9.5-3.6-3.3-3.7-3.3-9.8 0-5.2 3-9.8 3.1-4.8 9.1-7.6 6.1-3 15-3 9.7 0 16.2 3.9 6.7 3.6 10.1 10.1 3.4 6.2 3.4 14.4 0 6.9-2.2 11.9-2.1 4.9-6.2 8.8-2.1 1.8-5.8 3.7-3.8 1.8-10 3-6.2 1.2-15.9 1.2l11-6.1 9.1 0.7q4.9 1.2 8.6 4.6 3.9 3.3 5.9 7.9 2.3 4.6 2.3 9.7 0 2.7-0.5 4.9-0.4 2.1-1.5 4.2-0.6 0.7-1.9 0.7-1.2 0-1.9 0.9-4.2 4.2-9.3 7.4-5 3.3-12.4 3.3-5.2 0-10-1.8-4.6-1.9-7.4-5.6-2.9-3.9-2.9-9.4 0-8.2 5.5-12.2 5.7-4.2 14.5-4.2 4.9 0 7.8 1.2 3 1.1 5.8 2.7 8.4 3.7 13 11.2 4.6 7.2 4.6 16.5 0 9.3-4.5 15.9-4.4 6.2-11.6 9.5-7.1 3.1-15.3 3.1-10.8 0-18.3-4.1-7.4-4.4-13.1-13l9.5-1.2q-5 7.2-10.1 11.2-5 4-10.5 5.6-5.4 1.5-11.8 1.5zm4.5-18.9q5.6 0 8.9-4 3.3-4 4-10.4h19.5q0.9 7.3 4.6 10.9 3.7 3.5 10.4 3.5 3.3 0 6.4-1 3.1-1 5.2-3.9 2.1-2.9 2.1-8.5 0-4.3-1-7.8-0.9-3.8-3.3-6-2.2-2.2-6.1-2.2-2.2 0-3.7 1-1.5 0.9-1.5 3 0 2.4 1.8 3.4 1.9 0.9 4.3 0.9 2.2 0 4.2-0.7 1.9-0.9 3.1-2.9 1.2-2 1.2-5.3 0-3.4-1.7-6.3-1.6-2.9-5.5-5-3.7-2.4-10.1-3.6-6.2-1.3-15.7-1.3h-4.2q-8 0-14.4 2.2-6.3 2.1-10.7 6.1-4.5 3.9-6.9 9.7-2.2 5.6-2.2 12.8 0 8 3 11.7 2.9 3.7 8.3 3.7zm154.3-42.2q0 7.3-3.3 12.6-3.3 5.2-9.5 8.2-6.1 2.8-14.9 2.8-9.9 0-16.3-3.5-6.3-3.6-9.7-7.3l3.7-15.3q1.7 2.5 3.7 4.9 2.3 2.4 5.2 3.8 3.2 1.5 7.2 1.5 6.8 0 10.1-2.5 3.3-2.5 3.3-6.2 0-3.6-2.1-5.5-2.1-2-5.2-2-4 0-7.3 2.1-3.3 1.9-5.2 6.1-1.8 4-1.8 10.3v1.6q0 8.8 3.4 14.7 3.4 6 8.9 9.8 5.5 3.9 11.6 6.7l-11.1 18.3q-10.1-5.2-17.9-12-7.5-7-11.9-16.1-4-9.1-4-20.2 0-11.8 4.3-19.9 4.7-8.4 12.7-12.8 8.2-4.5 18.9-4.5 8.7 0 14.8 3.1 6.1 3.2 9.3 8.7 3.1 5.5 3.1 12.6z"/>
	<path id="ಮಗ" class="s11" aria-label="ಮಗ"  d="m683.8 516.6q-6.4 0-11.4-2.8-5-2.9-7.8-7.8-2.7-5-2.7-11.6 0-5.3 2-9.7 2.1-4.3 5.7-6.9 3.7-2.6 8.8-2.6 5.3 0 8.9 3.3 3.6 3.1 3.6 8.7 0 1.2-0.3 2.9-0.1 1.6-0.6 3l-3.5-0.2q0.5-1.5 0.7-2.8 0.2-1.3 0.2-2.7 0-4.2-2.4-6.4-2.5-2.4-6.7-2.4-5.4 0-9.2 4.2-3.8 4-3.8 11.5 0 9 5.3 14 5.3 4.9 14 4.9 8.6 0 13.5-5.3 5-5.3 6-16.2h3.1q1.1 11.5 5.6 16.5 4.6 5 12.9 5 8.6 0 12.7-5.8 4.1-5.9 4.1-16.8 0-7.6-2.3-14.4-2.3-6.9-6.7-12.5-4.2-5.7-10.3-9.7-6-4.2-13.6-6.4l5.7-0.7q8.9 3 15.9 9.3 6.9 6.2 10.8 14.9 3.9 8.8 3.9 19.7 0 7.6-2.1 13.5-2.2 5.7-6.6 9-4.4 3.3-11 3.3-6.2 0-10.4-2.1-4.3-2.3-6.8-6.4-2.5-4.4-3.7-10.4l0.6-0.1q-1.2 5.9-3.7 10.2-2.6 4.2-7.1 6.5-4.3 2.3-11.3 2.3zm41-69h-62.9v-3.3h61.7q6.6 0 10.1-0.5 3.8-0.7 5.8-2.7 1.4-1.4 2.2-3.5 0.8-2.1 0.8-5.2 0-3.7-1.7-7.8-1.7-4.1-6.3-9.4l2.7-2.1q4.8 5.6 6.7 10.2 2 4.5 2 9.1 0 4-1 6.6-1 2.7-2.8 4.4-3 2.7-7.5 3.5-4.3 0.7-9.8 0.7zm45 69q-9.7 0-16.4-4.7-6.7-4.8-11.8-11.6l1.8-2.6q5.2 7 11.3 11.3 6.1 4.2 15.1 4.2 8.7 0 14.1-6.1 5.5-6.1 5.5-18.8 0-9.8-3.3-17.8-3.3-8.1-9.6-14.3-6.2-6.3-15.2-10.5l1.6-3.1q8.8 4.3 15.6 10.9 6.8 6.5 10.6 15.1 3.8 8.7 3.8 19.8 0 8.3-2.7 14.7-2.7 6.3-7.8 9.9-5.1 3.6-12.6 3.6zm66.8-69.4q-4.7 0-8.8 1.9-4.1 1.9-7.5 5.7-3.3 3.6-5.9 9-1.9 4.2-3.1 9-1.1 4.7-1.6 11-0.5 6.2-0.5 15v16.2h-3.4v-17.2q0-11.6 1.4-21.7 1.6-10.1 6.2-17.7 4.7-7.7 14.2-11.9l1.8 1.1h-24.1v-3.3h39.8q6.5 0 10.1-0.5 3.8-0.7 5.8-2.7 1.4-1.4 2.2-3.5 0.8-2.1 0.8-5.2 0-3.7-1.7-7.8-1.7-4.1-6.3-9.4l2.7-2.1q4.8 5.6 6.7 10.2 2 4.5 2 9.1 0 6.5-2.7 9.8-2.5 3.3-7.3 4.3-4.7 1.1-11.1 1.1l-0.7-1.1q9.6 4.2 14.3 11.7 4.6 7.4 6 17.6 1.5 10.1 1.5 22.2v17h-3.3v-14.7q0-9.5-0.5-16.1-0.5-6.5-1.7-11.4-1.1-4.8-3.1-9-3.7-8.1-9.3-12.3-5.7-4.3-12.9-4.3z"/>
</svg>